<svg width="75" height="69" viewBox="0 0 75 69" fill="none" xmlns="http://www.w3.org/2000/svg">
<g opacity="0.4">
<path d="M5.5381 9.27723C5.49335 11.8344 5.73009 26.9848 5.82304 28.3994C6.94276 27.6335 18.8995 18.9348 20.13 17.8797C20.13 16.1666 19.8293 1.66788 19.8187 0.403976C19.4261 0.511715 6.01219 8.94186 5.5381 9.27723Z" fill="#808D92"/>
<path d="M5.79995 25.727C5.76147 24.0247 5.71793 21.6 5.67966 19.0987L7.09261 18.2937C7.35366 17.9915 7.85974 18.033 8.18134 18.2698C8.50294 18.5065 8.68763 18.8802 8.87293 19.2342C9.05824 19.5882 9.27169 19.9535 9.62103 20.1469C10.1804 20.4566 10.8736 20.2255 11.5109 20.2775C11.8205 20.3049 12.1203 20.4 12.3891 20.5559C12.6579 20.7119 12.8892 20.925 13.0666 21.1801L14.0144 22.0915C10.4159 24.7313 6.48749 27.577 5.86881 28.0003C5.85038 27.72 5.82628 26.8929 5.79995 25.727Z" fill="#C2D2C1"/>
<path d="M14.6072 7.15359C13.0766 7.69208 12.3113 9.08822 12.3113 10.8667C12.3113 13.5468 14.3804 13.8437 15.4008 13.531C16.6767 13.0209 17.6968 12.5265 17.6968 9.84624C17.6968 8.06795 15.9841 6.75078 14.6072 7.15359Z" fill="#BAB8B7"/>
<path d="M14.5001 6.76302C13.7441 7.02461 13.0918 7.52141 12.6387 8.18064C12.1977 8.87344 11.949 9.67109 11.918 10.4918C11.8279 11.8946 12.2975 13.3628 13.7204 13.8738C14.7127 14.2306 15.7516 13.9463 16.6129 13.3983C17.8525 12.6107 18.1858 11.0549 18.0957 9.66771C17.9833 7.94227 16.3039 6.26726 14.5001 6.76302C13.998 6.90094 14.2113 7.68285 14.7155 7.54413C15.916 7.21423 17.0396 8.31976 17.2559 9.42895C17.31 9.80485 17.3129 10.1864 17.2644 10.563C17.2398 10.8859 17.18 11.205 17.086 11.5149C16.9648 11.9353 16.7166 12.3079 16.3754 12.5817C16.0416 12.8255 15.6714 13.0152 15.2785 13.1437C14.9548 13.2392 14.6127 13.2544 14.2817 13.1881C13.8812 13.1217 13.5152 12.9206 13.2445 12.618C12.8876 12.2235 12.7465 11.6325 12.7212 11.0991C12.6503 9.61546 13.2274 8.08302 14.7143 7.54393C15.2012 7.36794 14.9914 6.58481 14.5001 6.76302Z" fill="#211715"/>
<path d="M7.37899 18.5801C7.75446 18.1925 8.22126 18.8809 8.37274 19.1542C8.66051 19.6739 8.92095 20.2642 9.49022 20.534C10.0883 20.8175 10.7124 20.664 11.3437 20.6758C11.6119 20.6792 11.8756 20.745 12.114 20.868C12.3523 20.991 12.5588 21.1679 12.7169 21.3846C12.7731 21.4751 12.8619 21.5406 12.965 21.5677C13.0681 21.5947 13.1776 21.5812 13.271 21.53C13.3631 21.4751 13.43 21.3863 13.4572 21.2826C13.4843 21.1789 13.4696 21.0686 13.4162 20.9757C13.2222 20.6928 12.9734 20.4518 12.6844 20.267C12.3954 20.0822 12.0723 19.9575 11.7341 19.9001C11.3784 19.8617 11.0195 19.8608 10.6636 19.8975C10.343 19.9155 9.98112 19.936 9.71319 19.7253C9.47756 19.4985 9.2914 19.2254 9.1664 18.9232C9.02185 18.6136 8.82664 18.3303 8.58882 18.085C8.104 17.6317 7.30264 17.494 6.80668 18.0072C6.44377 18.3821 7.01608 18.9556 7.3794 18.5801H7.37899Z" fill="#211715"/>
<path d="M5.13311 9.27722C5.09261 11.6659 5.15337 14.059 5.18395 16.4475C5.22445 19.5528 5.2767 22.658 5.34069 25.7633C5.35993 26.6408 5.36094 27.5229 5.41805 28.3994C5.43628 28.6829 5.75646 28.9349 6.02743 28.7492C7.71094 27.5948 9.34525 26.3651 10.9943 25.1646C13.3862 23.423 15.7704 21.6702 18.147 19.9063C18.8587 19.3751 19.5764 18.8487 20.2674 18.2906C20.3474 18.241 20.4138 18.1722 20.4606 18.0905C20.5075 18.0088 20.5333 17.9167 20.5357 17.8226C20.5397 17.6938 20.5341 17.564 20.5327 17.4352C20.5285 17.0273 20.5228 16.6194 20.5156 16.2114C20.4708 13.3548 20.4185 10.4985 20.3587 7.6423C20.3141 5.32207 20.2629 3.00184 20.2283 0.681616C20.2269 0.589268 20.2254 0.496921 20.2246 0.404776C20.224 0.342602 20.2092 0.281395 20.1813 0.225806C20.1534 0.170218 20.1133 0.121711 20.0639 0.0839716C20.0145 0.0462323 19.9571 0.0202536 19.8961 0.00800975C19.8352 -0.00423406 19.7722 -0.00242079 19.7121 0.0133117C19.5199 0.0873202 19.3369 0.183418 19.1669 0.29967C18.8125 0.507047 18.4615 0.720094 18.1108 0.933546C16.9917 1.61441 15.8767 2.30188 14.766 2.99597C12.2505 4.5594 9.74063 6.13227 7.23645 7.7146C6.60237 8.11518 5.94743 8.49692 5.33279 8.92848C4.90954 9.22618 5.31396 9.92892 5.74168 9.62798C6.24797 9.27135 6.78909 8.95501 7.3128 8.6237C8.42299 7.92164 9.53481 7.22161 10.6482 6.5236C13.137 4.9618 15.6259 3.40202 18.1314 1.86978C18.5634 1.60651 18.9958 1.34182 19.4314 1.08402C19.5644 1.00544 19.6973 0.92666 19.8324 0.851527C19.8729 0.828845 19.9148 0.808188 19.9539 0.784899C20.0505 0.729207 19.9057 0.800695 19.9263 0.794417L19.4146 0.403966C19.432 2.40078 19.4863 4.39779 19.5247 6.3942C19.5812 9.32785 19.6359 12.2614 19.689 15.1949C19.7042 16.0897 19.7256 16.9848 19.7258 17.8797L19.8445 17.5933C19.7584 17.6669 19.6699 17.7373 19.5812 17.8076C19.5251 17.8519 19.4688 17.896 19.4125 17.9399C19.3809 17.9646 19.3492 17.9891 19.3174 18.0136L19.2546 18.062C18.8714 18.3563 18.486 18.6478 18.0984 18.9366C17.0156 19.7479 15.9284 20.5535 14.8367 21.3533C12.459 23.1026 10.0742 24.8422 7.68239 26.5721C6.99707 27.0675 6.31642 27.5717 5.61875 28.0505L6.22812 28.4002C6.18053 27.6633 6.17709 26.9219 6.16007 26.1839C6.12848 24.8043 6.10148 23.4248 6.07907 22.0453C6.02425 18.8632 5.98118 15.6816 5.94986 12.5005C5.94075 11.4271 5.92475 10.3514 5.94318 9.27722C5.95189 8.75574 5.14182 8.75574 5.13311 9.27722Z" fill="#211715"/>
<path d="M14.0645 15.3857C14.0503 15.6332 14.0531 15.8815 14.0371 16.129C14.0372 16.2091 14.0609 16.2874 14.1054 16.354C14.1499 16.4205 14.2132 16.4724 14.2872 16.5031C14.3612 16.5337 14.4426 16.5418 14.5212 16.5261C14.5997 16.5105 14.6719 16.472 14.7285 16.4153C14.8011 16.3372 14.8432 16.2356 14.8472 16.129C14.8632 15.8815 14.8604 15.6332 14.8745 15.3857C14.8746 15.3056 14.8508 15.2273 14.8063 15.1607C14.7618 15.0941 14.6986 15.0421 14.6246 15.0115C14.5506 14.9808 14.4691 14.9727 14.3906 14.9884C14.312 15.004 14.2398 15.0425 14.1832 15.0992C14.1103 15.1772 14.0681 15.279 14.0645 15.3857Z" fill="#211715"/>
<path d="M16.9791 14.9522C17.0601 15.1634 17.1589 15.3678 17.2468 15.5759L17.2063 15.4793C17.2286 15.5322 17.2503 15.5855 17.2701 15.6393C17.302 15.7396 17.3679 15.8255 17.4564 15.8824C17.551 15.9365 17.6632 15.9511 17.7685 15.9229C17.8706 15.8947 17.9577 15.8279 18.0115 15.7367C18.0391 15.6902 18.0568 15.6385 18.0638 15.5849C18.0708 15.5312 18.0668 15.4767 18.052 15.4247C17.9641 15.1859 17.8519 14.9566 17.7531 14.7223L17.7936 14.8191C17.7823 14.792 17.7711 14.7649 17.7606 14.7381C17.7287 14.638 17.6629 14.552 17.5745 14.4951C17.5286 14.4682 17.4778 14.4507 17.4251 14.4435C17.3723 14.4362 17.3187 14.4394 17.2672 14.453C17.2157 14.4665 17.1674 14.49 17.125 14.5222C17.0827 14.5543 17.047 14.5946 17.0202 14.6405C16.9925 14.687 16.9746 14.7387 16.9676 14.7924C16.9607 14.846 16.9648 14.9006 16.9797 14.9526L16.9791 14.9522Z" fill="#211715"/>
<path d="M11.3753 14.1246C11.1914 14.32 10.9905 14.4996 10.8068 14.6946C10.7325 14.7717 10.6902 14.8741 10.6883 14.9812C10.6928 15.0877 10.7348 15.1891 10.8068 15.2676C10.883 15.3432 10.986 15.3859 11.0934 15.3862C11.2006 15.3852 11.3032 15.3427 11.3797 15.2676C11.564 15.0725 11.7645 14.8929 11.9482 14.6975C12.0226 14.6204 12.065 14.518 12.0669 14.4109C12.0692 14.3568 12.0571 14.3029 12.0318 14.255C12.0158 14.205 11.9871 14.1601 11.9484 14.1246C11.8723 14.0489 11.7694 14.0063 11.662 14.0059C11.5547 14.0068 11.452 14.0493 11.3755 14.1246H11.3753Z" fill="#211715"/>
<path d="M9.85657 12.5005C10.0822 12.4124 10.312 12.3359 10.5409 12.2575C10.6419 12.2272 10.7284 12.1609 10.7839 12.0712C10.8381 11.9766 10.8526 11.8644 10.8244 11.7591C10.8103 11.7078 10.7863 11.6597 10.7536 11.6176C10.721 11.5756 10.6804 11.5404 10.6341 11.5141C10.5878 11.4877 10.5368 11.4708 10.484 11.4642C10.4311 11.4576 10.3775 11.4614 10.3262 11.4756C10.0974 11.5544 9.86731 11.6309 9.64191 11.7186C9.54177 11.7506 9.45586 11.8164 9.39889 11.9047C9.34467 11.9974 9.32951 12.1079 9.35674 12.2118C9.38397 12.3157 9.45136 12.4046 9.54409 12.4588C9.59055 12.4866 9.64223 12.5045 9.69592 12.5115C9.74961 12.5185 9.80415 12.5143 9.85617 12.4993L9.85657 12.5005Z" fill="#211715"/>
<path d="M74.5798 54.7305C73.1115 56.2676 71.542 57.8958 70.0333 59.4552C69.9097 59.5828 69.7882 59.7084 69.6687 59.8339C69.4439 60.0648 69.2205 60.295 68.9984 60.5245C67.7448 61.8206 66.5459 63.0559 65.5293 64.107C65.3531 64.2872 65.183 64.4655 65.019 64.6356L64.9947 64.6599C64.8246 64.8361 64.6625 65.0042 64.5046 65.1682C64.4256 65.2512 64.3466 65.3322 64.2717 65.4112C64.2717 65.4112 64.217 65.4679 64.1198 65.5712C64.138 65.4173 64.1542 65.2532 64.1664 65.075C64.2818 63.3314 63.7107 58.9084 63.5993 58.2624C63.5689 58.0862 63.5365 57.9161 63.5041 57.75C63.3658 57.0082 63.1611 56.2802 62.8925 55.575C62.8844 55.5568 62.8784 55.5385 62.8703 55.5203C62.3397 54.1088 61.6005 52.8755 60.6001 51.3829C60.4036 51.0893 60.1984 50.7929 59.9844 50.4939C58.0423 47.7923 55.3488 44.8821 52.2301 42.7415C51.3815 42.1583 50.2636 41.407 48.9837 40.6293C45.8832 38.7479 41.8248 36.7106 38.2787 36.5304C38.1653 36.5243 38.0499 36.5182 37.9344 36.5081C37.7016 36.4899 37.4646 36.4676 37.2216 36.4413C36.6161 36.3724 35.9802 36.2732 35.322 36.1517C31.778 35.4996 27.5838 34.2035 23.892 33.602H23.8879C23.2711 33.4708 22.6469 33.3774 22.0187 33.3225C21.4624 33.2753 20.9039 33.2597 20.3459 33.2759L20.514 33.1443C21.7635 32.1661 23.1386 31.0786 24.5218 29.983C24.6838 29.8575 24.8438 29.7299 25.0038 29.6023C26.3951 28.5006 27.7783 27.405 29.0359 26.4127C29.1068 26.3559 29.1776 26.3013 29.2485 26.2446C29.3194 26.1879 29.3903 26.1352 29.4612 26.0785C29.6009 25.9691 29.7386 25.8618 29.8743 25.7545C30.1477 25.5418 30.4116 25.3353 30.6661 25.1348C30.7795 25.0477 30.8909 24.9606 31.0003 24.8735C31.0631 24.8269 31.1259 24.7783 31.1866 24.7297C31.2474 24.6811 31.3081 24.6366 31.3668 24.59C31.4965 24.4908 31.622 24.3936 31.7435 24.3004C31.8468 24.2194 31.9481 24.1424 32.0473 24.0655C32.3207 23.8569 32.5718 23.6645 32.8027 23.4924C32.8877 23.4276 32.9728 23.3648 33.0518 23.304C33.2178 23.1825 33.3697 23.0711 33.5054 22.9739C33.7079 23.057 34.0117 23.1886 34.4046 23.3587C36.45 24.2518 40.875 26.2547 45.5268 28.4257L51.6853 31.8948L53.8259 33.0997C57.2261 34.7259 60.3105 36.2306 62.364 37.2898C62.4409 37.3303 62.5159 37.3688 62.5888 37.4073C62.6617 37.4457 62.7285 37.4802 62.7974 37.5166C62.8298 37.5328 62.8622 37.551 62.8946 37.5672C63.1011 37.6746 63.3806 37.8163 63.7168 37.9844C63.812 38.031 63.9112 38.0816 64.0165 38.1323C64.0692 38.1586 64.1218 38.1849 64.1765 38.2112C64.2838 38.2639 64.3972 38.3206 64.5127 38.3773C64.7476 38.4927 64.9947 38.6143 65.2559 38.7418C65.3835 38.8046 65.5172 38.8694 65.6508 38.9342C65.7176 38.9666 65.7865 39.0011 65.8574 39.0355C66.0619 39.1367 66.2725 39.24 66.4872 39.3433C66.4892 39.3433 66.4913 39.3433 66.4913 39.3453C66.7059 39.4506 66.9226 39.556 67.1454 39.6633C67.1474 39.6653 67.1494 39.6653 67.1515 39.6673C67.4471 39.8111 67.7462 39.9569 68.0486 40.1048C68.4293 40.2911 68.8161 40.4815 69.1989 40.6698C69.3508 40.7447 69.5006 40.8176 69.6485 40.8905C69.8004 40.9655 69.9543 41.0404 70.1062 41.1174C70.252 41.1903 70.3978 41.2611 70.5416 41.332C70.6185 41.3705 70.6955 41.409 70.7704 41.4475C70.9122 41.5163 71.0519 41.5872 71.1896 41.656C71.9268 42.0246 72.6093 42.3709 73.1804 42.6727C73.3201 42.7456 73.4538 42.8165 73.5793 42.8833C73.9763 43.0959 74.2983 43.2782 74.5271 43.4179C74.5271 45.4391 74.5311 49.2018 74.5534 52.1788C74.5555 52.3428 74.5555 52.5028 74.5575 52.6608C74.5575 52.7337 74.5575 52.8066 74.5595 52.8775C74.5615 53.0354 74.5615 53.1914 74.5636 53.3433C74.5636 53.4101 74.5636 53.4749 74.5656 53.5377C74.5676 53.6896 74.5696 53.8374 74.5696 53.9812C74.5717 54.1392 74.5737 54.2931 74.5757 54.4409V54.449C74.5757 54.4895 74.5777 54.528 74.5777 54.5665C74.5777 54.5665 74.5777 54.6232 74.5798 54.7305Z" fill="white"/>
<path d="M34.4975 9.84254C34.3727 9.82599 34.2457 9.83651 34.1253 9.8734C34.0049 9.91028 33.8939 9.97267 33.7997 10.0563C33.7055 10.1399 33.6305 10.2429 33.5797 10.3581C33.5289 10.4733 33.5035 10.5982 33.5052 10.7241C33.5052 13.402 33.5052 20.1642 33.5052 22.9731C34.7628 23.4895 39.9857 25.8389 45.5284 28.425L53.8275 33.0991C57.535 34.8709 60.8666 36.5026 62.8964 37.5666C64.7859 38.5573 72.7166 42.2992 74.5342 43.4209C74.5342 39.9441 74.5544 31.5545 74.5544 28.1601C74.5576 27.8463 74.4726 27.5379 74.309 27.2701C74.1455 27.0023 73.91 26.7858 73.6293 26.6453C67.7519 23.9239 42.265 12.8552 34.6707 9.88973C34.6149 9.86776 34.5568 9.85194 34.4975 9.84254Z" fill="#D3D1D0"/>
<path d="M51.7552 32.3799C55.3851 34.1159 58.9627 35.9645 62.5272 37.8309C65.1425 39.2001 67.8295 40.435 70.4723 41.7498C71.765 42.3928 73.0913 43.0119 74.3234 43.7678L74.1229 43.4181C74.1229 46.6116 74.1273 49.8053 74.1553 52.9985C74.1585 53.3651 74.1623 53.7315 74.1666 54.0978C74.1881 54.2465 74.1836 54.3978 74.1535 54.545C74.0884 54.7108 73.8647 54.8724 73.7427 55.0012C73.0923 55.6874 72.4395 56.3713 71.7844 57.0531C70.4504 58.4437 69.1121 59.8302 67.7695 61.2124C66.507 62.5157 65.2457 63.82 63.9855 65.1254C63.6244 65.5017 64.1963 66.0752 64.5582 65.6983C67.322 62.8196 70.1153 59.9694 72.8746 57.0861C73.2476 56.6964 73.62 56.306 73.9916 55.915C74.3098 55.5804 74.7944 55.2139 74.9346 54.7606C75.0534 54.3759 74.9751 53.8858 74.97 53.4866C74.9658 53.0612 74.9622 52.6359 74.9591 52.2108C74.9456 50.2748 74.9378 48.339 74.9358 46.4034C74.9341 45.5787 74.9332 44.7541 74.9329 43.9295C74.9329 43.7674 74.9414 43.604 74.9329 43.4434C74.9266 43.3457 74.8928 43.2518 74.8355 43.1724C74.7782 43.093 74.6997 43.0314 74.6089 42.9946C74.4242 42.8849 74.2363 42.7804 74.0477 42.6771C72.8652 42.0307 71.655 41.4338 70.4474 40.8358C68.0099 39.6284 65.5346 38.4884 63.1228 37.231C59.9072 35.553 56.6854 33.8857 53.4265 32.2929C53.0068 32.0876 52.5862 31.8843 52.1647 31.6827C51.6966 31.4599 51.2853 32.157 51.756 32.3822L51.7552 32.3799Z" fill="#211715"/>
<path d="M20.7998 33.4303C24.4839 30.5454 28.1238 27.6033 31.8264 24.7423C32.4481 24.2617 33.071 23.782 33.7098 23.3231L33.3975 23.3636L33.4987 23.4041C33.5143 23.4094 33.5294 23.4157 33.5441 23.4231C33.6364 23.4624 33.7287 23.5019 33.8207 23.5416C34.0503 23.6403 34.2791 23.74 34.5073 23.8407C35.139 24.1183 35.7694 24.3988 36.3986 24.6822C38.1883 25.4855 39.9738 26.298 41.7551 27.1196C42.9456 27.6687 44.135 28.2205 45.323 28.775C45.4165 28.8263 45.5259 28.8398 45.629 28.8128C45.7321 28.7857 45.8209 28.7203 45.8771 28.6298C45.9305 28.5368 45.9452 28.4266 45.918 28.3229C45.8909 28.2192 45.824 28.1304 45.7319 28.0755C41.8841 26.2804 38.0331 24.475 34.1298 22.8012C33.8687 22.6892 33.5465 22.4741 33.2729 22.643C33.0419 22.7848 32.8274 22.9689 32.6109 23.1317C32.0034 23.5882 31.4017 24.0534 30.8014 24.5199C29.2058 25.7602 27.6219 27.0154 26.0374 28.2699C24.1026 29.8018 22.1657 31.331 20.2268 32.8577C20.1514 32.934 20.1091 33.0369 20.1091 33.1441C20.1091 33.2513 20.1514 33.3542 20.2268 33.4305C20.304 33.5041 20.4066 33.5451 20.5132 33.5451C20.6198 33.5451 20.7224 33.5041 20.7996 33.4305L20.7998 33.4303Z" fill="#211715"/>
<path d="M64.0218 53.832C66.4708 51.5896 68.851 49.2724 71.2719 47.0003C71.7909 46.5143 72.3108 46.0283 72.8395 45.5513C73.228 45.2018 72.6536 44.6305 72.2668 44.9786C69.9039 47.105 67.6349 49.3384 65.3205 51.5169C64.6995 52.1012 64.0756 52.6817 63.4489 53.2585C63.0641 53.6113 63.6376 54.183 64.0218 53.8312V53.832Z" fill="#211715"/>
<path d="M33.9094 22.9731C33.9094 20.2729 33.9094 17.5727 33.9094 14.8724C33.9094 13.6168 33.9094 12.3618 33.9094 11.1073C33.9094 10.8748 33.8647 10.602 34.0202 10.4082C34.2 10.1836 34.4384 10.2316 34.6731 10.3235C35.0013 10.4522 35.3289 10.5822 35.6559 10.7136C37.4196 11.4203 39.174 12.15 40.9266 12.8837C43.1678 13.8221 45.4051 14.769 47.6386 15.7244C50.1236 16.7851 52.6062 17.8517 55.0863 18.9242C57.5109 19.9719 59.9334 21.0242 62.3538 22.0812C64.43 22.9881 66.5041 23.8998 68.5761 24.8164C70.0407 25.4644 71.5049 26.1155 72.9614 26.7826C73.3648 26.9673 73.7644 27.1192 73.9908 27.5319C74.2494 28.0044 74.148 28.6541 74.1476 29.176C74.1464 30.4811 74.1445 31.7862 74.1421 33.0912C74.1371 35.9819 74.1323 38.8726 74.1277 41.7632C74.1277 42.2801 74.1277 42.7971 74.1277 43.3142C74.1277 43.8353 74.9378 43.8363 74.9378 43.3142C74.9378 40.5749 74.9416 37.8356 74.9493 35.0963C74.9519 33.6363 74.9543 32.1762 74.9566 30.7161C74.9574 30.1195 74.9581 29.5229 74.9586 28.9263C74.9586 28.2707 75.0014 27.6113 74.6362 27.0303C74.183 26.3085 73.2691 26.0341 72.5254 25.6975C71.7818 25.361 71.0359 25.0276 70.2898 24.6953C68.3044 23.811 66.3157 22.9334 64.3239 22.0626C61.9188 21.0095 59.5113 19.9611 57.1014 18.9175C54.5625 17.818 52.0211 16.7237 49.4772 15.6347C47.1042 14.6201 44.7283 13.6117 42.3497 12.6095C40.4485 11.81 38.5454 11.0149 36.6341 10.2401C36.2672 10.0916 35.9002 9.94393 35.5328 9.79718C35.146 9.64306 34.7041 9.39538 34.2798 9.43265C34.0836 9.44988 33.8939 9.51176 33.7252 9.61355C33.5566 9.71534 33.4134 9.85435 33.3067 10.0199C33.1418 10.3181 33.0699 10.6587 33.1002 10.9981C33.1002 11.5611 33.1002 12.1241 33.1002 12.6871C33.1002 15.5797 33.1002 18.4723 33.1002 21.3649V22.9747C33.1002 23.496 33.9102 23.4968 33.9102 22.9747L33.9094 22.9731Z" fill="#211715"/>
<path d="M29.3575 34.5745C29.9041 33.4647 30.6035 32.437 31.4353 31.5213C31.9869 30.9239 32.5558 30.3409 33.1526 29.7884C33.8477 29.1446 34.6053 28.4364 35.5608 28.2367C36.6236 28.0139 37.6574 28.3641 38.5738 28.8805C39.5937 29.4555 40.6395 29.9812 41.6865 30.5041C42.1523 30.7364 42.5621 30.0383 42.0953 29.8046C41.1087 29.3119 40.1226 28.8175 39.1589 28.2802C38.126 27.7045 37.0527 27.2636 35.8414 27.3821C35.262 27.4307 34.7018 27.6129 34.2047 27.9145C33.7839 28.1863 33.3854 28.491 33.0129 28.8258C32.3108 29.4465 31.6412 30.103 31.007 30.7929C30.0667 31.7991 29.2756 32.9349 28.6578 34.1658C28.4239 34.6301 29.1236 35.0408 29.3573 34.5747L29.3575 34.5745Z" fill="#211715"/>
<path d="M51.1555 34.6006C52.419 35.2537 53.6499 35.9728 54.8789 36.6881C56.3095 37.5209 57.7344 38.366 59.1407 39.2382C60.3305 39.9372 61.4392 40.7658 62.4466 41.7089C63.4389 42.6844 63.7113 44.3254 63.3081 45.711C63.1424 46.2603 62.8968 46.7821 62.579 47.2597C62.4446 47.4663 62.2995 47.6665 62.1495 47.8618C62.2198 47.7704 62.095 47.9243 62.0754 47.9472C62.0243 48.0064 61.9721 48.0645 61.9194 48.1224C61.2366 48.8758 60.4938 49.5726 59.6982 50.2059C59.6229 50.2822 59.5806 50.3851 59.5806 50.4924C59.5806 50.5996 59.6229 50.7025 59.6982 50.7788C59.7755 50.8524 59.878 50.8934 59.9847 50.8934C60.0913 50.8934 60.1939 50.8524 60.2711 50.7788C61.0146 50.1842 61.713 49.5353 62.3605 48.8375C62.9494 48.2225 63.4311 47.5132 63.7856 46.739C64.5003 45.1286 64.5047 43.2318 63.5167 41.7294C63.1177 41.1228 62.509 40.656 61.9464 40.2105C61.384 39.7568 60.7983 39.3326 60.1918 38.9399C58.8321 38.0772 57.4465 37.254 56.058 36.4382C54.576 35.5674 53.0915 34.6895 51.564 33.8999C51.1016 33.6609 50.6913 34.3598 51.1551 34.5994L51.1555 34.6006Z" fill="#211715"/>
<path d="M36.435 13.5156C37.9723 14.2041 39.5207 14.8698 41.0659 15.5407C43.757 16.7105 46.4487 17.8783 49.1411 19.0443C52.2328 20.3852 55.3245 21.7271 58.4163 23.0699C61.104 24.2383 63.7899 25.4103 66.4742 26.586C68.0095 27.2602 69.5547 27.9191 71.0713 28.6367C71.1398 28.6691 71.2082 28.7019 71.2759 28.7355C71.7417 28.9674 72.152 28.2687 71.6847 28.036C70.3728 27.3827 69.0093 26.8209 67.6684 26.2314C65.0845 25.0949 62.4973 23.9649 59.907 22.8415C56.8222 21.4996 53.7364 20.1599 50.6498 18.8223C47.8707 17.6176 45.0918 16.4124 42.313 15.2066C40.5868 14.4573 38.8585 13.7106 37.1381 12.9475C37.04 12.9039 36.9418 12.8602 36.8437 12.8163C36.7502 12.7653 36.6407 12.7519 36.5377 12.7789C36.4347 12.806 36.346 12.8713 36.2896 12.9617C36.2362 13.0546 36.2215 13.1649 36.2487 13.2685C36.2759 13.3722 36.3428 13.4608 36.435 13.5156Z" fill="#211715"/>
<path d="M33.4029 11.107L32.929 9.97513C32.8785 9.87988 32.8553 9.77248 32.8622 9.66488C32.8891 9.56603 32.9364 9.47388 33.0009 9.39431C33.2518 9.00791 33.2927 8.52613 33.3177 8.06601C33.3565 7.64373 33.3403 7.21819 33.2695 6.80008C33.1101 6.03376 32.5736 5.14411 31.8761 4.78869C31.5521 4.62405 31.0722 4.52542 30.8401 4.81988C30.7693 4.91359 30.7206 5.02205 30.6974 5.13718C30.6743 5.25232 30.6775 5.37118 30.7066 5.48494L30.3949 5.43796C30.3014 5.27707 30.1615 5.14817 29.9936 5.06813C29.8256 4.98808 29.6373 4.96063 29.4535 4.98937C29.2696 5.01811 29.0987 5.10169 28.9632 5.22918C28.8276 5.35667 28.7337 5.52212 28.6938 5.70386C28.5869 5.62874 28.4642 5.57925 28.3351 5.55923C28.206 5.53921 28.074 5.54921 27.9494 5.58843C27.8266 5.63294 27.7248 5.72145 27.6637 5.83678C27.6026 5.95211 27.5864 6.08604 27.6184 6.21258C27.4478 6.18864 27.2739 6.22189 27.1241 6.30715C26.9743 6.3924 26.857 6.52486 26.7904 6.68384C26.7296 6.84519 26.7121 7.0196 26.7395 7.18982C26.7669 7.36003 26.8382 7.52014 26.9465 7.6543C26.9669 7.68035 26.9885 7.70546 27.0113 7.72963C26.924 7.9603 26.8669 8.11016 26.8669 8.11016C26.6869 8.58283 27.2563 9.39816 27.4969 9.68533C27.8341 10.0428 28.2474 10.3197 28.7064 10.4954C28.8862 10.5472 29.0507 10.6418 29.1859 10.7712C29.3198 10.9133 29.4316 11.0747 29.5174 11.25C29.7848 11.7883 30.0059 12.3485 30.1781 12.9244L33.4029 11.107Z" fill="white"/>
<path d="M30.7443 5.2335C30.6099 5.00473 30.4102 4.82133 30.1709 4.70684C29.9316 4.59235 29.6635 4.55199 29.401 4.59095C29.1386 4.62991 28.8938 4.74641 28.698 4.92549C28.5022 5.10457 28.3645 5.33807 28.3023 5.59601L28.8973 5.35299C28.7179 5.23228 28.5096 5.1614 28.2937 5.14759C28.0779 5.13378 27.8623 5.17755 27.6689 5.27441C27.491 5.37612 27.3514 5.5334 27.2716 5.72211C27.1918 5.91082 27.1761 6.12051 27.227 6.31899L27.7252 5.8208C27.4685 5.77519 27.204 5.81477 26.9719 5.93349C26.7399 6.05221 26.553 6.24356 26.4398 6.47837C26.3304 6.73347 26.2989 7.01526 26.3493 7.28823C26.3998 7.56119 26.5299 7.81311 26.7233 8.01223C27.4186 8.75607 29.1165 8.80326 29.3492 7.59079L28.6721 7.76941C28.8133 7.89335 28.984 7.9788 29.1678 8.01751C29.3516 8.05621 29.5422 8.04686 29.7214 7.99036C29.8975 7.92849 30.0543 7.82137 30.1759 7.67975C30.2976 7.53813 30.3798 7.36699 30.4144 7.18353L29.8194 7.42655C30.0469 7.55758 30.3138 7.60293 30.5718 7.55442C30.8298 7.5059 31.062 7.36672 31.2264 7.16201C31.3908 6.9573 31.4765 6.70055 31.4682 6.43814C31.4599 6.17573 31.358 5.92495 31.1809 5.73109C31.1047 5.6557 31.0018 5.61341 30.8946 5.61341C30.7873 5.61341 30.6844 5.6557 30.6082 5.73109C30.5345 5.80827 30.4935 5.91086 30.4935 6.01755C30.4935 6.12423 30.5345 6.22682 30.6082 6.30401C30.8065 6.55472 30.4713 6.85262 30.2283 6.72706C30.1744 6.69658 30.1144 6.6787 30.0527 6.67477C29.9909 6.67083 29.9291 6.68093 29.8719 6.70432C29.8146 6.72771 29.7634 6.76378 29.7221 6.80981C29.6807 6.85584 29.6504 6.91063 29.6333 6.97008C29.6035 7.14202 29.4324 7.34696 29.2449 7.19872C29.0296 7.0284 28.6314 7.04623 28.568 7.37754C28.4648 7.91603 27.6859 7.77893 27.3732 7.51789C27.2838 7.44736 27.2151 7.35405 27.1743 7.24779C27.1334 7.14152 27.122 7.02621 27.1411 6.91398C27.1755 6.7627 27.3394 6.57902 27.5111 6.60393C27.5799 6.62111 27.652 6.62018 27.7204 6.60124C27.7887 6.58229 27.851 6.54597 27.9012 6.49581C27.9513 6.44566 27.9877 6.38337 28.0066 6.31501C28.0256 6.24666 28.0265 6.17456 28.0093 6.10574C27.9423 5.85887 28.3908 5.99517 28.4897 6.05451C28.5435 6.08506 28.6035 6.10301 28.6653 6.10699C28.727 6.11097 28.7889 6.10087 28.8462 6.07748C28.9035 6.05408 28.9547 6.01798 28.996 5.9719C29.0373 5.92583 29.0676 5.87098 29.0847 5.81149C29.106 5.70849 29.1577 5.61426 29.2332 5.54101C29.3086 5.46775 29.4044 5.41885 29.5079 5.40063C29.6115 5.38241 29.7182 5.39571 29.8141 5.43881C29.9101 5.48192 29.9908 5.55284 30.046 5.64238C30.3224 6.08286 31.0238 5.67681 30.7455 5.2335H30.7443Z" fill="#211715"/>
<path d="M26.4757 8.00255C26.3224 8.47643 26.5567 8.99487 26.7979 9.39626C27.0496 9.83151 27.3973 10.2036 27.8145 10.4842C28.0621 10.6428 28.3244 10.777 28.5978 10.8852C28.8102 10.9651 28.9869 11.1184 29.096 11.3173C29.397 11.8574 29.6291 12.4332 29.7868 13.031C29.9286 13.5318 30.7103 13.319 30.5679 12.8157C30.3946 12.2487 30.1779 11.6958 29.9199 11.162C29.8086 10.9128 29.6571 10.6837 29.4713 10.4838C29.2685 10.3048 29.0311 10.1693 28.7738 10.0858C28.3435 9.90952 27.9657 9.62547 27.6768 9.26098C27.4889 8.99771 27.1543 8.53415 27.2566 8.21782C27.4172 7.72064 26.6355 7.5076 26.4757 8.00255Z" fill="#211715"/>
<path d="M33.7934 10.9993C33.6415 10.6364 33.4878 10.2743 33.3375 9.91082C33.2565 9.71317 33.2656 9.73949 33.3713 9.56411C33.4712 9.39507 33.5473 9.21304 33.5973 9.02319C33.678 8.67717 33.7217 8.32354 33.7276 7.96829C33.7566 7.55805 33.7369 7.14582 33.6688 6.74023C33.4592 5.63307 32.4626 4.09618 31.1605 4.2353C30.9695 4.25521 30.7888 4.33163 30.6415 4.4548C30.4942 4.57796 30.387 4.74227 30.3336 4.9267C30.2036 5.33173 30.3336 5.74486 30.5071 6.11364C30.562 6.20573 30.6509 6.27257 30.7545 6.29977C30.8582 6.32697 30.9684 6.31234 31.0614 6.25905C31.1524 6.20315 31.2182 6.11431 31.2453 6.01105C31.2723 5.90779 31.2585 5.79807 31.2066 5.70476C31.1327 5.5472 30.9733 5.15129 31.2066 5.04395C31.4092 4.95059 31.7593 5.17235 31.9106 5.28495C32.3961 5.67948 32.7324 6.22797 32.8638 6.83966C32.9377 7.24408 32.9541 7.6569 32.9124 8.0659C32.9163 8.40248 32.8547 8.7366 32.7312 9.04972C32.6426 9.18956 32.5628 9.3347 32.492 9.48432C32.4349 9.68286 32.4513 9.89533 32.5382 10.0828C32.6862 10.4635 32.8547 10.8377 33.0125 11.2146C33.044 11.3164 33.113 11.4023 33.2056 11.455C33.2982 11.5076 33.4073 11.5231 33.5109 11.4981C33.6142 11.4692 33.702 11.4007 33.7551 11.3074C33.8082 11.2141 33.8223 11.1036 33.7944 11L33.7934 10.9993Z" fill="#211715"/>
<path d="M58.7831 14.3376C59.1938 13.6734 59.793 13.1521 60.357 12.612C60.7924 12.195 61.2307 11.7268 61.3524 11.1362C61.3953 10.7604 61.4054 10.3815 61.3826 10.004C61.4151 9.33071 61.6559 8.68418 62.0718 8.15375C62.4877 7.62331 63.0581 7.23517 63.7042 7.04297C64.2421 6.89493 64.9871 6.97736 65.4191 7.32994C65.5134 7.39936 65.5869 7.49329 65.6316 7.60154C65.6763 7.70979 65.6905 7.82822 65.6727 7.94397C65.8167 7.88667 65.9731 7.86735 66.1268 7.88787C66.2806 7.90839 66.4264 7.96806 66.5504 8.06115C66.6744 8.15424 66.7725 8.27763 66.8351 8.4195C66.8977 8.56136 66.9228 8.71693 66.908 8.87129C67.0307 8.83282 67.1605 8.82313 67.2875 8.84298C67.4145 8.86282 67.5352 8.91166 67.6403 8.98571C67.742 9.06412 67.8109 9.17749 67.8338 9.30384C67.8567 9.4302 67.8318 9.56054 67.764 9.66961C67.9311 9.69817 68.084 9.7812 68.1989 9.90575C68.3138 10.0303 68.3843 10.1894 68.3993 10.3582C68.4081 10.5275 68.3725 10.6963 68.296 10.8476C68.2194 10.999 68.1047 11.1277 67.9631 11.2211C67.8687 11.2847 67.7654 11.334 67.6565 11.3675C67.6381 11.5176 67.6273 11.6083 67.6273 11.6083C67.5909 11.7903 67.5177 11.963 67.4122 12.1158C67.3068 12.2685 67.1712 12.3982 67.0139 12.4967C66.644 12.7639 66.2152 12.9381 65.7638 13.0046C65.5788 13.0109 65.3981 13.0619 65.2372 13.1533C65.0751 13.2576 64.9294 13.3856 64.8051 13.533C64.41 14.0263 63.365 15.4683 63.0501 16.024L62.4905 16.8644L58.7831 14.3376Z" fill="white"/>
<path d="M64.3583 10.3498C64.2944 10.3654 64.2317 10.3857 64.1708 10.4106C63.9861 10.477 63.8152 10.5771 63.6669 10.7057C63.6142 10.7479 63.5649 10.7941 63.5193 10.844C63.4451 10.9211 63.4027 11.0233 63.4006 11.1303C63.4013 11.2376 63.4439 11.3404 63.5193 11.4167C63.5952 11.4926 63.6983 11.5353 63.8057 11.5353C63.9131 11.5353 64.0161 11.4926 64.092 11.4167C64.1426 11.3618 64.1976 11.3111 64.2564 11.2652L64.1754 11.3286C64.2658 11.2593 64.3644 11.2016 64.4691 11.1569L64.3725 11.1974C64.4382 11.17 64.5059 11.1477 64.575 11.1309C64.6264 11.1169 64.6744 11.0928 64.7165 11.0602C64.7585 11.0275 64.7937 10.9869 64.8201 10.9406C64.8464 10.8944 64.8633 10.8433 64.8699 10.7905C64.8765 10.7377 64.8727 10.6841 64.8585 10.6327C64.8302 10.5307 64.7634 10.4436 64.6722 10.3897C64.577 10.3376 64.4656 10.3231 64.3601 10.3492L64.3583 10.3498Z" fill="#211715"/>
<path d="M65.7693 8.33866C65.8531 8.29945 65.9459 8.28341 66.0381 8.2922C66.1302 8.30099 66.2183 8.3343 66.2932 8.38866C66.3681 8.44303 66.4271 8.51646 66.464 8.60133C66.501 8.6862 66.5145 8.77941 66.5032 8.87127C66.504 8.9334 66.5189 8.99454 66.5468 9.05004C66.5747 9.10555 66.6149 9.15396 66.6643 9.19162C66.7138 9.22927 66.7711 9.25517 66.832 9.26735C66.893 9.27954 66.9559 9.27768 67.016 9.26193C67.0773 9.23965 67.143 9.23172 67.2079 9.23874C67.2728 9.24576 67.3352 9.26755 67.3904 9.30243C67.4034 9.31087 67.4144 9.32198 67.4228 9.33501C67.4312 9.34804 67.4367 9.36269 67.439 9.37801C67.4412 9.39333 67.4402 9.40895 67.436 9.42385C67.4318 9.43875 67.4245 9.45259 67.4145 9.46444C67.3837 9.5182 67.3655 9.57828 67.3614 9.64011C67.3573 9.70195 67.3673 9.76391 67.3907 9.82128C67.4142 9.87866 67.4504 9.92993 67.4966 9.9712C67.5429 10.0125 67.5979 10.0426 67.6575 10.0594C68.1638 10.1423 68.0288 10.7504 67.6513 10.9361C67.2695 11.1241 66.467 11.0208 66.534 10.4604C66.5336 10.3981 66.5189 10.3367 66.491 10.281C66.4631 10.2253 66.4227 10.1767 66.3731 10.139C66.3234 10.1014 66.2658 10.0756 66.2046 10.0638C66.1434 10.052 66.0803 10.0544 66.0202 10.0708C65.8712 10.1269 65.6111 10.0894 65.6415 9.86826C65.6582 9.7995 65.6569 9.7276 65.6378 9.65948C65.6187 9.59135 65.5823 9.52929 65.5323 9.47926C65.4823 9.42922 65.4202 9.3929 65.3521 9.37378C65.284 9.35466 65.2121 9.35338 65.1433 9.37007C65.0721 9.37169 65.0023 9.35024 64.9442 9.30893C64.8862 9.26761 64.8431 9.20865 64.8213 9.14082C64.7665 9.04865 64.6777 8.98175 64.5739 8.95457C64.4702 8.9274 64.36 8.94215 64.267 8.99562C64.1762 9.05158 64.1105 9.14038 64.0834 9.24357C64.0564 9.34676 64.0701 9.45639 64.1218 9.5497C64.2321 9.77293 64.4135 9.95315 64.6374 10.062C64.8613 10.1709 65.1151 10.2023 65.3588 10.1512L64.8604 9.65299C64.8245 9.83537 64.8362 10.0239 64.8944 10.2005C64.9525 10.377 65.0552 10.5356 65.1925 10.6609C65.334 10.7821 65.505 10.8635 65.6883 10.897C65.8715 10.9305 66.0603 10.9148 66.2355 10.8515L65.7229 10.4608C65.6549 11.0295 66.0714 11.5082 66.5721 11.7075C66.8205 11.8064 67.0879 11.8485 67.3547 11.8308C67.6215 11.8131 67.881 11.736 68.1142 11.6052C68.3389 11.4749 68.5222 11.2838 68.6431 11.0539C68.764 10.824 68.8176 10.5647 68.7977 10.3057C68.7727 10.0583 68.6694 9.82529 68.5029 9.64057C68.3364 9.45586 68.1153 9.32904 67.8718 9.27853L68.1138 9.87353C68.2192 9.6984 68.2635 9.49325 68.2397 9.29025C68.216 9.08725 68.1255 8.89787 67.9826 8.75179C67.8262 8.6076 67.6348 8.50673 67.4275 8.45913C67.2201 8.41154 67.0039 8.41888 66.8003 8.48042L67.3131 8.87087C67.3232 8.65441 67.2801 8.43876 67.1876 8.24282C67.095 8.04688 66.9558 7.87662 66.7822 7.74696C66.6086 7.61731 66.4058 7.5322 66.1916 7.49911C65.9775 7.46602 65.7585 7.48595 65.5538 7.55715C65.4516 7.58786 65.3651 7.65677 65.3123 7.74957C65.2595 7.84238 65.2444 7.95195 65.2703 8.05554C65.2995 8.15874 65.3681 8.24631 65.4613 8.29936C65.5545 8.35241 65.6648 8.36667 65.7685 8.33906L65.7693 8.33866Z" fill="#211715"/>
<path d="M59.1328 14.5419C59.6188 13.7738 60.3528 13.2327 60.9654 12.5747C61.2751 12.262 61.5171 11.8889 61.6764 11.4787C61.8467 10.9977 61.7722 10.5013 61.7876 10.0039C61.8281 8.65398 63.1212 7.15434 64.5671 7.40182C64.8144 7.44414 65.364 7.58732 65.2593 7.93666C65.1423 8.32833 64.6204 8.49217 64.2605 8.42979C64.157 8.40435 64.0476 8.41957 63.9549 8.47231C63.8623 8.52505 63.7933 8.6113 63.7623 8.71331C63.7347 8.81695 63.7489 8.92731 63.8019 9.02053C63.855 9.11376 63.9426 9.18236 64.0458 9.2115C64.3089 9.26684 64.5809 9.26283 64.8422 9.19977C65.1035 9.13671 65.3474 9.01619 65.5562 8.84697C65.7541 8.70357 65.9059 8.5056 65.993 8.27728C66.0802 8.04896 66.0989 7.80019 66.0469 7.5614C65.7707 6.58446 64.3409 6.42913 63.528 6.67276C62.8471 6.88782 62.2442 7.29753 61.7934 7.85131C61.3427 8.4051 61.064 9.07873 60.9917 9.78908C60.9374 10.3229 61.0903 10.8896 60.839 11.389C60.5782 11.9072 60.1051 12.2918 59.6917 12.6851C59.2142 13.1143 58.7916 13.6009 58.4335 14.1339C58.1536 14.5756 58.8543 14.9824 59.1328 14.5425V14.5419Z" fill="#211715"/>
<path d="M67.2371 11.5016C67.1407 12.1123 66.4201 12.4485 65.8802 12.5731C65.5301 12.6541 65.2231 12.6622 64.9236 12.8849C64.7153 13.0403 64.53 13.2244 64.3733 13.4317C63.7617 14.1886 63.2023 14.9862 62.6989 15.819C62.4389 16.2718 63.1386 16.6803 63.3984 16.2279C63.636 15.8141 63.9168 15.4235 64.1925 15.0347C64.3545 14.807 64.518 14.581 64.683 14.3564C64.7505 14.2644 64.819 14.1725 64.8885 14.081C64.9535 13.9945 65.0003 13.933 65.0364 13.8874C65.1705 13.6826 65.3664 13.5258 65.5955 13.4396C65.9356 13.3833 66.2705 13.2991 66.5967 13.1879C67.2245 12.9267 67.9044 12.4356 68.0178 11.717C68.043 11.6135 68.0277 11.5042 67.975 11.4116C67.9223 11.3189 67.8362 11.2499 67.7343 11.2186C67.6306 11.1909 67.5203 11.2051 67.427 11.2582C67.3338 11.3113 67.2652 11.3989 67.2361 11.5022L67.2371 11.5016Z" fill="#211715"/>
<path d="M53.3757 12.9921C53.3291 11.9467 53.1655 10.9319 52.6871 10.0025C51.9834 8.63352 51.2681 7.88036 50.1265 7.19545C49.1726 6.6337 48.1251 6.24863 47.0345 6.05873C43.2124 5.44692 39.4784 7.56099 38.8731 12.9898C40.2374 12.362 42.8159 11.309 44.1488 10.6538C43.9085 11.1883 43.1806 12.2523 43.6004 12.2614C45.2908 12.3171 46.9541 11.8271 48.3444 10.864C48.5511 10.7251 49.0032 10.8274 49.0025 11.1182C49.0009 11.8632 48.9797 12.838 49.0836 13.3374C49.2419 14.0948 49.5878 15.9034 50.5403 16.4867L51.0538 16.8012C51.2468 16.7726 51.444 16.8 51.6219 16.88C51.7997 16.9408 51.9473 17.0677 52.0341 17.2345C52.1208 17.4012 52.14 17.595 52.0877 17.7755C51.9776 18.3045 51.6993 18.7836 51.2944 19.1413C51.086 19.337 50.8365 19.4838 50.5642 19.571C50.2973 19.6504 50.0144 19.6587 49.7434 19.5949C49.644 19.7586 49.5358 19.9168 49.4193 20.0688C49.0851 20.4804 48.7009 20.8488 48.2755 21.1654C47.6901 21.5853 47.0334 21.8955 46.3372 22.0808C46.2655 22.8117 46.2917 23.5489 46.4152 24.2728C47.5831 23.8994 48.8537 23.402 49.3744 22.9802C51.0668 21.6262 52.4034 20.4639 53.6272 19.2717C53.5434 18.3778 53.3974 17.4808 53.3672 16.5847C53.3293 15.4006 53.4265 14.177 53.3726 12.9921H53.3757Z" fill="#C5B6AB"/>
<path d="M39.5286 11.5996C39.8112 10.351 40.4078 9.19523 41.2618 8.24163C42.0093 7.44819 42.9618 6.87696 44.0138 6.59112C45.1254 6.29777 46.292 6.28156 47.4114 6.54394C48.7682 6.85541 50.1532 7.48078 51.1439 8.481C51.6716 9.03344 52.1019 9.67119 52.4168 10.3672C52.7713 11.1975 52.9595 12.0893 52.9706 12.9921C52.9956 13.5111 53.8058 13.5141 53.7807 12.9921C53.7622 12.1157 53.6043 11.248 53.3129 10.4213C53.0208 9.67102 52.6141 8.97056 52.1073 8.34491C51.151 7.15655 49.7227 6.39185 48.2875 5.94226C45.8155 5.16804 43.0081 5.54169 41.0512 7.31451C39.8697 8.38501 39.1347 9.85406 38.7485 11.3851C38.621 11.8914 39.4019 12.1064 39.5297 11.6006L39.5286 11.5996Z" fill="#211715"/>
<path d="M53.2224 23.4759C54.2724 21.9741 54.1465 20.1672 53.9433 18.4355C53.8272 17.5331 53.7683 16.6243 53.7667 15.7145C53.7748 14.8068 53.8182 13.8995 53.7799 12.9919C53.758 12.4726 52.948 12.4698 52.9698 12.9919C53.0067 13.8671 52.968 14.742 52.9577 15.6173C52.9519 16.4941 53.0029 17.3704 53.1104 18.2407C53.3036 19.8896 53.5302 21.6266 52.5231 23.0671C52.2236 23.4952 52.9257 23.9006 53.2226 23.4759H53.2224Z" fill="#211715"/>
<path d="M40.1749 24.2014C40.1267 24.0913 40.0971 23.974 40.0874 23.8543C40.0412 23.2307 40.4442 23.348 40.9481 22.8538C41.2376 22.5343 41.4679 22.1659 41.6283 21.7657C41.7264 21.8226 41.8238 21.8734 41.92 21.9192C43.0014 22.4342 44.7552 22.5231 46.3395 22.0812C46.2682 23.2374 46.2799 23.9703 46.621 25.07C45.5659 25.8193 43.804 26.1889 42.4331 25.9467C41.733 25.8231 41.0287 25.5169 40.6338 24.9237C40.4595 24.6972 40.3059 24.4554 40.1749 24.2014Z" fill="white"/>
<path d="M49.8392 19.6146C50.0812 19.6555 50.3294 19.6405 50.5648 19.5708C50.8371 19.4836 51.0866 19.3368 51.295 19.1411C51.7 18.7834 51.9782 18.3043 52.0883 17.7753C52.1406 17.5948 52.1214 17.4011 52.0347 17.2343C51.948 17.0676 51.8004 16.9406 51.6225 16.8798C51.4444 16.7997 51.2471 16.7722 51.0539 16.8006L50.5409 16.4865C49.5891 15.9033 49.2425 14.0946 49.0842 13.3372C48.9785 12.8309 49.0018 11.8361 49.0032 11.088C49.0032 10.8094 48.6143 10.6794 48.4236 10.8106C47.0178 11.8076 45.3242 12.3171 43.6017 12.2612C43.1818 12.2521 43.9097 11.1879 44.1501 10.6536C42.8424 11.2958 40.3365 12.3216 38.9535 12.9538C37.6939 18.2361 40.0657 21.036 41.9208 21.9192C43.4834 22.6635 46.4513 22.5176 48.2782 21.1652C48.7035 20.8486 49.0877 20.4803 49.422 20.0686C49.5403 19.9144 49.6496 19.7534 49.7494 19.5866C49.8155 19.4601 49.919 19.2689 49.9925 19.0961L49.8392 19.6146Z" fill="white"/>
<path d="M63.104 16.7861C62.5369 17.6367 61.5223 19.0219 60.3012 20.6238C60.2789 20.6542 60.2546 20.6846 60.2323 20.7149H60.2303C59.7503 21.3427 59.238 22.003 58.7114 22.6753C58.6952 22.6956 58.679 22.7158 58.6628 22.7381H58.6608C58.2456 23.2667 57.8203 23.8013 57.3951 24.3339C57.0123 24.8078 56.6275 25.2817 56.2448 25.7475V25.7495C55.9896 26.0594 55.7364 26.3652 55.4853 26.6669C55.297 26.8937 55.1086 27.1165 54.9244 27.3372C54.7401 27.558 54.5558 27.7706 54.3755 27.9792V27.9812C54.254 28.121 54.1345 28.2587 54.0171 28.3944C53.5452 28.9371 53.0956 29.4434 52.6764 29.897C52.2046 30.4094 51.915 31.0392 51.6861 31.8938C51.5606 32.3617 51.4532 32.8963 51.3418 33.518C50.8376 35.9563 50.3212 38.4979 49.902 40.839L48.9846 40.6284C45.884 38.747 41.8256 36.7097 38.2795 36.5294C38.1661 36.5234 38.0507 36.5173 37.9353 36.5072C37.7024 36.4889 37.4654 36.4667 37.2224 36.4403C36.6169 36.3715 35.981 36.2722 35.3228 36.1507C35.6489 34.6035 35.501 33.7347 35.5213 32.1753C35.5334 31.0169 35.4342 29.2692 35.5719 27.8253C35.5719 27.8212 35.5739 27.8172 35.5739 27.8131C35.6036 27.4677 35.6564 27.1247 35.7319 26.7864C35.74 26.7479 35.7501 26.7074 35.7602 26.6669C35.7805 26.5879 35.8028 26.5049 35.8271 26.4178C35.8291 26.4138 35.8291 26.4077 35.8311 26.4016C35.8554 26.3206 35.8797 26.2355 35.9061 26.1505C35.9202 26.1059 35.9344 26.0594 35.9486 26.0148C35.9526 26.0035 35.956 25.992 35.9587 25.9804C35.8332 25.786 35.7562 25.6685 35.7562 25.6685V25.6665C35.3451 25.0366 34.8894 24.2509 34.4054 23.3578C34.1138 22.8191 33.8141 22.2399 33.5062 21.6303V21.6283C32.2446 19.113 30.8999 16.0935 29.7941 13.2745C29.7654 13.2232 29.7508 13.1652 29.7516 13.1064C29.7637 13.0193 29.8508 12.9626 29.9278 12.9201C30.0007 12.8796 30.0716 12.8391 30.1424 12.7986C30.2903 12.7156 30.4341 12.6366 30.5718 12.5596C30.7095 12.4827 30.8452 12.4098 30.9768 12.3369C31.5196 12.0412 32.0299 11.7678 32.5605 11.4822C32.8238 11.3405 33.0931 11.1947 33.3746 11.0387C33.4171 11.0144 33.4617 10.9901 33.5062 10.9658C33.6581 10.8787 33.8141 10.7937 33.9741 10.7025C34.4905 11.9095 35.9587 15.0627 36.6878 16.3305C37.1414 17.1162 37.7773 18.1855 38.4193 19.19C38.4841 19.2892 38.5489 19.3885 38.6137 19.4857V19.4877C38.6765 19.5869 38.7413 19.6841 38.8061 19.7793V19.7813C38.8689 19.8765 38.9337 19.9717 38.9965 20.0649C39.1888 20.3464 39.3731 20.6117 39.5513 20.8527L39.7802 20.0061C39.7822 20.0102 39.7842 20.0122 39.7842 20.0142C39.7923 20.0244 39.7984 20.0345 39.8065 20.0446C39.9326 20.2306 40.0684 20.4098 40.2136 20.5813C40.2521 20.6218 40.2865 20.6643 40.3229 20.7048C40.3313 20.7153 40.3409 20.7248 40.3513 20.7332C40.3958 20.7818 40.4424 20.8324 40.489 20.879C40.5356 20.9256 40.5822 20.9742 40.6308 21.0167C40.653 21.041 40.6773 21.0633 40.6996 21.0835C40.7219 21.1038 40.7482 21.1261 40.7725 21.1483C40.8677 21.2314 40.9629 21.3103 41.0601 21.3853C41.1127 21.4278 41.1654 21.4663 41.2181 21.5048C41.2626 21.5372 41.3051 21.5675 41.3497 21.5939C41.3963 21.6283 41.4449 21.6566 41.4915 21.685H41.4935C41.4996 21.6891 41.5036 21.6931 41.5097 21.6972C41.5502 21.7215 41.5866 21.7458 41.6271 21.768H41.6292C41.5968 21.8571 41.5583 21.9523 41.5158 22.0455C41.374 22.3339 41.1889 22.5988 40.9669 22.8312C40.963 22.8348 40.9596 22.8389 40.9568 22.8434C40.9528 22.8474 40.9507 22.8495 40.9487 22.8495C40.9406 22.8576 40.9345 22.8657 40.9264 22.8738C40.9062 22.894 40.8839 22.9122 40.8637 22.9305C40.8626 22.9316 40.8612 22.9324 40.8596 22.9325C40.8535 22.9366 40.8475 22.9447 40.8394 22.9507C40.83 22.9612 40.8191 22.97 40.8069 22.9771C40.7968 22.9852 40.7867 22.9933 40.7745 23.0014C40.762 23.0133 40.7484 23.0241 40.734 23.0338C40.727 23.0403 40.7196 23.0464 40.7118 23.052C40.6243 23.1139 40.5337 23.1713 40.4404 23.2241C40.4328 23.2296 40.4246 23.2343 40.4161 23.2383C40.3817 23.2606 40.3472 23.2808 40.3169 23.3011C40.3088 23.3072 40.3007 23.3112 40.2926 23.3173V23.3193C40.2743 23.3335 40.2561 23.3477 40.2399 23.3618C40.2318 23.3699 40.2237 23.376 40.2156 23.3841C40.2083 23.391 40.2015 23.3985 40.1953 23.4064C40.1812 23.4236 40.1683 23.4419 40.1569 23.4611C40.1448 23.4781 40.1346 23.4965 40.1265 23.5157C40.1265 23.5178 40.1265 23.5178 40.1245 23.5198L40.1123 23.5563L40.1062 23.5745C40.1017 23.5918 40.0983 23.6094 40.0961 23.6271C40.0921 23.6451 40.0894 23.6634 40.088 23.6818C40.086 23.7041 40.086 23.7284 40.084 23.7547C40.084 23.7851 40.086 23.8175 40.088 23.854C40.0919 23.9136 40.1021 23.9727 40.1184 24.0301C40.1185 24.0373 40.1206 24.0443 40.1245 24.0504C40.1257 24.0624 40.1291 24.0741 40.1346 24.0848C40.1395 24.1056 40.1463 24.126 40.1548 24.1456C40.1548 24.1496 40.1569 24.1516 40.1569 24.1537C40.159 24.1616 40.1624 24.1691 40.167 24.176C40.1698 24.1872 40.1739 24.198 40.1791 24.2084C40.1852 24.2225 40.1913 24.2347 40.1974 24.2489C40.2035 24.263 40.2136 24.2813 40.2197 24.2954C40.2258 24.3051 40.2312 24.3153 40.2359 24.3258C40.2541 24.3602 40.2743 24.3947 40.2946 24.4271C40.3067 24.4493 40.3209 24.4696 40.3351 24.4919C40.3918 24.5769 40.4505 24.66 40.5093 24.743C40.5214 24.7592 40.5336 24.7774 40.5457 24.7936C40.5761 24.8362 40.6065 24.8807 40.6348 24.9232C40.7074 25.0338 40.7923 25.1357 40.888 25.227C40.9499 25.2885 41.0162 25.3453 41.0864 25.3971C41.4861 25.6831 41.9474 25.8711 42.4332 25.9459C42.504 25.9581 42.5749 25.9682 42.6478 25.9783C42.7207 25.9885 42.7936 25.9966 42.8665 26.0006C42.9415 26.0087 43.0164 26.0128 43.0913 26.0148C43.2169 26.0188 43.3425 26.0209 43.47 26.0188H43.4943C43.5065 26.0188 43.5186 26.0168 43.5328 26.0168L43.7677 26.0047C43.7837 26.0013 43.8 26 43.8163 26.0006C43.8244 26.0006 43.8325 25.9986 43.8406 25.9986L43.9034 25.9925C43.9079 25.9907 43.9128 25.99 43.9176 25.9905C43.9337 25.9881 43.9499 25.9868 43.9662 25.9864C43.9749 25.9848 43.9837 25.9841 43.9925 25.9844C44.0168 25.9804 44.0432 25.9783 44.0675 25.9743C44.1019 25.9702 44.1363 25.9642 44.1707 25.9601L44.2153 25.954C44.2356 25.952 44.2558 25.948 44.2761 25.9439C44.2904 25.9439 44.3048 25.9418 44.3186 25.9378C44.3362 25.9368 44.3538 25.9348 44.3712 25.9318L44.4401 25.9196C44.4968 25.9095 44.5515 25.8994 44.6082 25.8872C44.6187 25.8836 44.6296 25.8809 44.6406 25.8791C44.6475 25.8786 44.6543 25.8772 44.6608 25.8751C44.6872 25.869 44.7135 25.8649 44.7418 25.8568C44.7661 25.8528 44.7904 25.8467 44.8147 25.8406C44.8471 25.8346 44.8796 25.8285 44.9099 25.8204C44.9261 25.8143 44.9444 25.8103 44.9606 25.8042C44.973 25.8018 44.9851 25.7984 44.997 25.7941C45.0067 25.7923 45.0162 25.7896 45.0254 25.786C45.0391 25.7838 45.0527 25.7804 45.0659 25.7758C45.1489 25.7536 45.2299 25.7292 45.3109 25.7029C45.3372 25.6948 45.3636 25.6847 45.3919 25.6786C45.4344 25.6624 45.477 25.6462 45.5195 25.632C45.5228 25.6312 45.5262 25.6305 45.5296 25.63C45.5641 25.6158 45.5985 25.6017 45.6329 25.5895C45.6423 25.5837 45.6525 25.5796 45.6633 25.5774C45.6835 25.5693 45.7038 25.5612 45.722 25.5531C45.7666 25.5328 45.8132 25.5166 45.8557 25.4964C45.8759 25.4862 45.8962 25.4781 45.9164 25.468C45.9202 25.4679 45.9238 25.4665 45.9266 25.464C45.9367 25.4599 45.9468 25.4559 45.9549 25.4518C45.9674 25.4473 45.9796 25.4418 45.9914 25.4356C46.0096 25.4275 46.0278 25.4174 46.044 25.4093C46.0481 25.4073 46.0501 25.4052 46.0541 25.4032C46.0694 25.3966 46.0843 25.3892 46.0987 25.3809C46.1028 25.3809 46.1048 25.3809 46.1068 25.3789C46.1108 25.375 46.1156 25.3723 46.121 25.3708C46.125 25.3667 46.1291 25.3667 46.1352 25.3647L46.1777 25.3404C46.2141 25.3222 46.2506 25.3019 46.287 25.2817C46.2911 25.2797 46.2931 25.2776 46.2972 25.2756C46.362 25.2371 46.4268 25.1987 46.4875 25.1602C46.5341 25.1298 46.5787 25.0994 46.6212 25.069C46.7511 24.9775 46.8737 24.876 46.9877 24.7653C47.0526 24.7025 47.1133 24.6336 47.168 24.5688C47.168 24.5668 47.17 24.5668 47.17 24.5648C47.1984 24.5304 47.2247 24.4939 47.249 24.4595C47.3708 24.2905 47.4582 24.0992 47.5062 23.8965C47.5102 23.8945 47.5123 23.8945 47.5163 23.8924C47.5831 23.8681 47.65 23.8418 47.7128 23.8175C47.7755 23.7932 47.8424 23.7669 47.9051 23.7405C47.9659 23.7183 48.0246 23.694 48.0834 23.6676C48.0874 23.6656 48.0935 23.6636 48.0975 23.6616C48.1016 23.6595 48.1056 23.6575 48.1097 23.6575C48.1202 23.6536 48.1303 23.6489 48.1401 23.6433C48.2089 23.615 48.2737 23.5866 48.3385 23.5563C48.3635 23.5479 48.3879 23.5377 48.4114 23.5259C48.4228 23.5217 48.4337 23.5163 48.4438 23.5097C48.4702 23.4975 48.4965 23.4854 48.5208 23.4752C48.5471 23.4611 48.5755 23.4489 48.6038 23.4347C48.6059 23.4347 48.6079 23.4327 48.6099 23.4327V23.4307L48.6524 23.4125C48.6545 23.4104 48.6565 23.4084 48.6585 23.4084C48.6703 23.4022 48.6824 23.3968 48.695 23.3922C48.7112 23.3841 48.7253 23.376 48.7415 23.3679C48.8043 23.3355 48.8651 23.3031 48.9238 23.2727L48.936 23.2667C48.9365 23.2667 48.937 23.2664 48.9374 23.2661C48.9378 23.2657 48.938 23.2652 48.938 23.2646C48.9765 23.2424 49.0129 23.2221 49.0473 23.2018C49.0531 23.2 49.0586 23.1972 49.0635 23.1937L49.0818 23.1816C49.1547 23.137 49.2215 23.0945 49.2802 23.052C49.2908 23.0459 49.301 23.0392 49.3106 23.0317C49.3147 23.0277 49.3187 23.0257 49.3228 23.0216C49.3266 23.0196 49.33 23.0168 49.3329 23.0135C49.3374 23.0115 49.3415 23.0088 49.345 23.0054C49.3572 22.9973 49.3673 22.9892 49.3774 22.9811C49.4888 22.892 49.6002 22.8029 49.7096 22.7138C49.7278 22.6976 49.746 22.6834 49.7642 22.6692C49.9222 22.5416 50.0781 22.4161 50.228 22.2905C50.251 22.274 50.2727 22.2557 50.2928 22.2358C50.3617 22.1812 50.4305 22.1245 50.4994 22.0678C50.5277 22.0435 50.5561 22.0212 50.5844 21.9949C50.9105 21.7235 51.2244 21.4575 51.5261 21.1969C51.6355 21.1038 51.7428 21.0086 51.8502 20.9154C51.9514 20.8263 52.0507 20.7393 52.1499 20.6501C52.1548 20.6442 52.1602 20.6388 52.1661 20.6339C52.1762 20.6279 52.1843 20.6177 52.1944 20.6117C52.2775 20.5347 52.3605 20.4598 52.4435 20.3869C52.5266 20.3119 52.6076 20.237 52.6886 20.1621C52.6915 20.1571 52.6957 20.1529 52.7007 20.1499H52.7028C52.7271 20.1277 52.7514 20.1054 52.7757 20.0811C52.9073 19.9596 53.0369 19.8381 53.1665 19.7165L53.2961 19.593C53.3306 19.5586 53.365 19.5262 53.3994 19.4938C53.4764 19.4188 53.5533 19.3459 53.6303 19.271C53.8085 19.0968 53.9847 18.9207 54.1588 18.7445C54.3107 18.5926 54.4626 18.4387 54.6125 18.2807H54.6145C54.8596 18.0255 55.1046 17.7656 55.3496 17.501C55.5137 17.3228 55.6797 17.1405 55.8458 16.9542C56.4817 16.2434 57.1318 15.484 57.8305 14.6374C57.9196 14.5321 58.0087 14.4248 58.0978 14.3154C58.4157 13.9307 58.7438 13.5256 59.0861 13.1024C59.1529 13.1692 59.2218 13.238 59.2947 13.3069C59.3514 13.3636 59.4101 13.4183 59.4688 13.475C59.5154 13.5175 59.562 13.5621 59.6106 13.6066C59.7382 13.7221 59.8698 13.8436 60.0075 13.9671C60.05 14.0056 60.0926 14.0461 60.1371 14.0825C60.2445 14.1777 60.3538 14.2749 60.4652 14.3762C60.532 14.4349 60.5989 14.4957 60.6677 14.5544C60.672 14.5567 60.6756 14.5602 60.6778 14.5645C60.8216 14.6901 60.9654 14.8177 61.1112 14.9453C61.1922 15.0141 61.2712 15.085 61.3522 15.1559C61.417 15.2146 61.4818 15.2713 61.5466 15.33C61.573 15.3523 61.5993 15.3746 61.6256 15.3989C61.897 15.6419 62.1623 15.8809 62.4114 16.1118C62.5329 16.2252 62.6524 16.3386 62.7658 16.4479L62.7739 16.456C62.8885 16.5703 62.9979 16.6796 63.104 16.7861Z" fill="#857F7F"/>
<path d="M51.7315 33.6261C51.849 32.8362 52.0382 32.0587 52.2969 31.3032C52.5139 30.7749 52.8323 30.2941 53.2341 29.8882C54.1639 28.8645 55.0602 27.8106 55.9436 26.747C57.8338 24.4711 59.6668 22.1489 61.4427 19.7804C62.1301 18.8641 62.816 17.9436 63.4523 16.9908C63.4967 16.9133 63.5146 16.8233 63.5032 16.7347C63.4918 16.6461 63.4517 16.5636 63.3891 16.4999C62.1189 15.1987 60.6598 14.0993 59.3716 12.8173C59.2953 12.742 59.1924 12.6997 59.0851 12.6997C58.9779 12.6997 58.875 12.742 58.7987 12.8173C57.4216 14.5215 56.0254 16.2145 54.5132 17.8017C53.0846 19.2859 51.5669 20.6817 49.9686 21.9814C49.5423 22.369 49.0757 22.7098 48.5769 22.998C47.9404 23.31 47.2812 23.5733 46.605 23.7858C46.1133 23.9509 46.3243 24.7334 46.8204 24.5669C47.4482 24.3619 48.0645 24.1233 48.6666 23.852C49.1362 23.6301 49.5756 23.3492 49.974 23.016C50.8588 22.3022 51.7303 21.5713 52.5756 20.811C54.0708 19.4581 55.4809 18.0138 56.7976 16.4865C57.6771 15.4725 58.5279 14.434 59.3716 13.39H58.7987C60.0869 14.6722 61.546 15.7714 62.8162 17.0728L62.7528 16.5819C61.4324 18.5593 59.9538 20.4392 58.487 22.3085C56.6676 24.6271 54.8123 26.9258 52.8402 29.1177C52.369 29.6414 51.9202 30.1325 51.6377 30.788C51.3092 31.6331 51.0785 32.513 50.9502 33.4106C50.9247 33.5141 50.9399 33.6235 50.9926 33.7162C51.0454 33.8089 51.1316 33.8778 51.2337 33.9088C51.3373 33.9364 51.4477 33.9222 51.541 33.8692C51.6342 33.8161 51.7029 33.7285 51.7321 33.6253L51.7315 33.6261Z" fill="#211715"/>
<path d="M40.7036 22.5229C40.4736 22.7533 40.1569 22.8653 39.9323 23.0958C39.8132 23.2351 39.7314 23.4024 39.6946 23.5819C39.6579 23.7615 39.6673 23.9474 39.7221 24.1224C39.8233 24.5401 40.1188 24.9138 40.3733 25.2504C40.6227 25.5756 40.9461 25.8366 41.3167 26.0116C42.681 26.6662 44.4378 26.5062 45.8097 25.9509C46.527 25.6611 47.2145 25.2496 47.6475 24.5902C47.9345 24.1531 47.2334 23.7469 46.948 24.1815C46.3624 25.0726 45.0537 25.448 44.0573 25.5695C43.4523 25.6555 42.8365 25.6285 42.2413 25.4899C41.92 25.4154 41.616 25.2794 41.3462 25.0896C41.0976 24.8787 40.887 24.6268 40.7233 24.3449C40.616 24.2074 40.5392 24.0486 40.4979 23.8791C40.4875 23.8223 40.485 23.7643 40.4902 23.7068C40.4973 23.6394 40.4807 23.6892 40.5206 23.6515C40.5574 23.6165 40.7083 23.5359 40.7863 23.4865C40.9637 23.3742 41.128 23.2426 41.2764 23.094C41.6451 22.7246 41.0726 22.1515 40.7036 22.5213V22.5229Z" fill="#211715"/>
<path d="M41.2366 21.661C41.2117 21.7285 41.1853 21.7955 41.1575 21.8619L41.198 21.7651C41.0889 22.0473 40.9448 22.3146 40.769 22.5608L40.8324 22.4788C40.8221 22.4919 40.8122 22.5047 40.8006 22.5174C40.7269 22.5949 40.6846 22.6969 40.682 22.8038C40.6828 22.9111 40.7253 23.0138 40.8006 23.0902C40.8767 23.1659 40.9796 23.2085 41.087 23.2088C41.1402 23.209 41.1929 23.1986 41.2421 23.1783C41.2913 23.1579 41.3359 23.1279 41.3733 23.0902C41.5064 22.9299 41.6204 22.7546 41.7128 22.5679C41.8287 22.3439 41.9306 22.1129 42.0178 21.8763C42.0392 21.7986 42.0369 21.7163 42.0114 21.6399C41.9858 21.5636 41.938 21.4965 41.8741 21.4474C41.8102 21.3984 41.7332 21.3694 41.6528 21.3644C41.5724 21.3593 41.4923 21.3783 41.4228 21.419C41.3348 21.4759 41.2692 21.5614 41.2366 21.661Z" fill="#211715"/>
<path d="M45.9186 22.3509C45.8586 23.2279 45.9417 24.1089 46.1647 24.9593C46.1789 25.0106 46.203 25.0586 46.2357 25.1005C46.2684 25.1425 46.309 25.1776 46.3553 25.2039C46.4015 25.2302 46.4525 25.247 46.5053 25.2536C46.5581 25.2602 46.6117 25.2562 46.663 25.2421C46.7143 25.228 46.7623 25.2038 46.8043 25.1711C46.8462 25.1384 46.8813 25.0978 46.9076 25.0515C46.9339 25.0053 46.9508 24.9543 46.9573 24.9015C46.9639 24.8487 46.96 24.7951 46.9458 24.7438C46.8365 24.3683 46.7643 23.9829 46.7303 23.5933C46.7033 23.1796 46.7027 22.7646 46.7287 22.3509C46.728 22.2437 46.6851 22.1411 46.6093 22.0653C46.5335 21.9895 46.4309 21.9466 46.3237 21.9458C46.217 21.9482 46.1153 21.9916 46.0398 22.067C45.9644 22.1425 45.921 22.2442 45.9186 22.3509Z" fill="#211715"/>
<path d="M43.4564 15.5087C43.3633 15.6551 43.2742 15.8048 43.1944 15.9591C43.1386 16.0571 43.1052 16.1662 43.0964 16.2787C43.0937 16.3505 43.1068 16.4221 43.1348 16.4883C43.1628 16.5546 43.205 16.6139 43.2584 16.662C43.3407 16.7397 43.4398 16.7973 43.548 16.8305C43.6161 16.8463 43.6854 16.8567 43.7551 16.8615L43.6474 16.8471L43.661 16.8491C43.7665 16.8732 43.8772 16.8589 43.9731 16.8086C44.019 16.7818 44.0592 16.7462 44.0914 16.7038C44.1235 16.6614 44.147 16.6131 44.1605 16.5616C44.174 16.5101 44.1772 16.4565 44.1699 16.4038C44.1627 16.3511 44.1451 16.3003 44.1183 16.2544C44.0922 16.2089 44.0575 16.169 44.0159 16.137C43.9744 16.1051 43.9269 16.0817 43.8762 16.0682C43.8193 16.0583 43.7616 16.0531 43.7041 16.0454L43.8118 16.0599C43.7863 16.0561 43.7613 16.0493 43.7373 16.0397L43.8339 16.0802C43.8108 16.0699 43.789 16.057 43.7689 16.0417L43.8509 16.1051C43.8341 16.0918 43.8184 16.077 43.8042 16.061L43.8675 16.143C43.8635 16.1377 43.8602 16.132 43.8576 16.126L43.8981 16.2228C43.8947 16.2138 43.8923 16.2045 43.891 16.195L43.9054 16.3026C43.9047 16.2926 43.9047 16.2827 43.9054 16.2728L43.891 16.3803C43.8948 16.3595 43.9009 16.3391 43.9093 16.3196L43.8688 16.4164C43.911 16.3266 43.9584 16.2393 44.0105 16.1549C44.0572 16.075 44.1054 15.9959 44.1549 15.9176C44.2091 15.8248 44.2243 15.7144 44.1971 15.6105C44.1698 15.5065 44.1024 15.4177 44.0097 15.3635C43.963 15.3364 43.9113 15.3189 43.8577 15.3119C43.8042 15.305 43.7497 15.3087 43.6976 15.323C43.5968 15.3537 43.5105 15.4198 43.4546 15.5091L43.4564 15.5087Z" fill="#211715"/>
<path d="M48.5975 11.0534C48.5975 11.6751 48.5759 12.3007 48.6251 12.9212C48.6695 13.359 48.7497 13.7925 48.8649 14.2173C49.1016 15.1726 49.4639 16.2783 50.3365 16.8368C50.777 17.1185 51.1837 16.4178 50.7454 16.1373C50.0439 15.6884 49.7985 14.645 49.6188 13.8894C49.5222 13.5262 49.4576 13.1553 49.4256 12.7808C49.3914 12.2059 49.4072 11.6285 49.4076 11.053C49.4076 10.5317 48.5975 10.5309 48.5975 11.053V11.0534Z" fill="#211715"/>
<path d="M48.167 10.4962C47.1532 11.2001 45.9855 11.6507 44.7616 11.8102C44.4489 11.8454 44.1344 11.8622 43.8197 11.8604C43.7811 11.8604 43.6324 11.8312 43.6008 11.8563C43.7561 11.8759 43.8426 11.9473 43.8602 12.0704C43.8748 12.1468 43.8809 12.1587 43.8785 12.106C43.8846 12.106 43.8582 12.1648 43.8937 12.067C43.9068 12.0305 43.9178 11.9934 43.9323 11.9576C44.0854 11.5769 44.3268 11.2316 44.4994 10.8581C44.5412 10.7808 44.557 10.6919 44.5443 10.6049C44.5316 10.5178 44.4912 10.4372 44.429 10.3749C44.3669 10.3127 44.2863 10.2722 44.1992 10.2594C44.1122 10.2466 44.0233 10.2623 43.9459 10.3041C42.2261 11.1455 40.4345 11.8316 38.6945 12.6293C38.6023 12.6841 38.5355 12.773 38.5083 12.8766C38.4811 12.9803 38.4959 13.0905 38.5493 13.1834C38.6051 13.2744 38.6939 13.3402 38.7971 13.3673C38.9003 13.3944 39.01 13.3806 39.1033 13.3288C40.8434 12.5311 42.635 11.845 44.3548 11.0035L43.8007 10.4493C43.5848 10.9175 43.2578 11.3527 43.1136 11.8517C43.0684 11.9646 43.0562 12.0881 43.0782 12.2077C43.1003 12.3273 43.1558 12.4383 43.2383 12.5277C43.4813 12.7555 43.9526 12.6757 44.2531 12.6613C45.8011 12.5766 47.2964 12.0697 48.5769 11.1957C49.0076 10.9069 48.6026 10.2048 48.168 10.4962H48.167Z" fill="#211715"/>
<path d="M51.017 17.2275C51.1497 17.1767 51.297 17.1797 51.4275 17.2358C51.528 17.2777 51.6149 17.3467 51.6784 17.4351C51.7234 17.5107 51.6809 17.3983 51.6987 17.4756C51.7087 17.5076 51.7123 17.5413 51.7094 17.5746C51.7039 17.6501 51.6906 17.7247 51.6699 17.7974C51.6478 17.8827 51.6201 17.9657 51.5899 18.0483C51.5843 18.0715 51.5749 18.0935 51.562 18.1135C51.5395 18.1599 51.517 18.2061 51.4923 18.2515C51.4183 18.3932 51.3269 18.5251 51.2203 18.6443C51.1148 18.7636 50.998 18.8725 50.8716 18.9694C50.7411 19.0682 50.5935 19.1422 50.4362 19.1877C50.278 19.2342 50.1118 19.247 49.9483 19.2254C49.8448 19.2001 49.7355 19.2154 49.6429 19.2681C49.5503 19.3208 49.4813 19.407 49.4501 19.5089C49.4224 19.6125 49.4366 19.7229 49.4897 19.8161C49.5428 19.9094 49.6304 19.978 49.7337 20.0071C50.0048 20.055 50.2828 20.0487 50.5516 19.9886C50.8203 19.9285 51.0744 19.8157 51.2993 19.6567C51.7176 19.3623 52.0525 18.9646 52.2714 18.5024C52.4974 18.0068 52.6651 17.3954 52.3044 16.9213C52.1314 16.6998 51.8954 16.5359 51.6273 16.4514C51.3593 16.3668 51.0719 16.3655 50.8032 16.4476C50.7007 16.478 50.614 16.5468 50.5611 16.6397C50.5083 16.7325 50.4934 16.8423 50.5196 16.9458C50.549 17.0489 50.6176 17.1364 50.7108 17.1894C50.8039 17.2425 50.9142 17.2568 51.0178 17.2294L51.017 17.2275Z" fill="#211715"/>
<path d="M48.4823 21.5151C49.2846 20.9518 49.9255 20.1885 50.3416 19.3008C50.3929 19.2074 50.4065 19.0979 50.3795 18.9947C50.3525 18.8916 50.2869 18.8028 50.1964 18.7465C50.1033 18.6936 49.9932 18.6791 49.8896 18.7063C49.786 18.7335 49.6972 18.8001 49.6421 18.8919C49.5514 19.1102 49.4422 19.3202 49.3156 19.5197C49.2526 19.6157 49.1854 19.7089 49.1178 19.8014C49.0773 19.8557 49.0925 19.8284 49.1261 19.7935C49.1151 19.8049 49.1058 19.8193 49.0955 19.8314C49.0736 19.8586 49.0511 19.8853 49.0285 19.9124C48.9039 20.0582 48.7715 20.1976 48.6338 20.331C48.5428 20.4189 48.4494 20.5043 48.3537 20.5872C48.3063 20.6277 48.2583 20.6682 48.2099 20.7087C48.1797 20.7334 48.1491 20.7577 48.1186 20.782C48.1041 20.7942 48.0891 20.8057 48.0734 20.8163C47.9828 20.8724 47.9172 20.9613 47.8901 21.0644C47.8631 21.1676 47.8767 21.2771 47.9282 21.3705C47.9832 21.4625 48.072 21.5291 48.1756 21.5563C48.2792 21.5834 48.3893 21.5689 48.4823 21.5157V21.5151Z" fill="#211715"/>
<path d="M46.4897 16.0014C46.5411 15.9825 46.5942 15.9689 46.6483 15.9609L46.5405 15.9754C46.6178 15.9651 46.6962 15.9651 46.7734 15.9754L46.6659 15.9611C46.7437 15.9725 46.8197 15.9936 46.8923 16.0236L46.7955 15.9831C46.8633 16.012 46.9275 16.0489 46.9865 16.0931L46.9055 16.0299C46.9596 16.0717 47.0085 16.1198 47.0511 16.1733L46.9877 16.0913C47.007 16.1166 47.0249 16.1431 47.0412 16.1705C47.0957 16.2606 47.1821 16.327 47.2832 16.3566C47.3609 16.378 47.4432 16.3759 47.5196 16.3503C47.596 16.3247 47.6631 16.277 47.7122 16.2131C47.7613 16.1492 47.7903 16.0721 47.7953 15.9917C47.8004 15.9112 47.7814 15.8311 47.7407 15.7616C47.5846 15.509 47.3449 15.3191 47.0632 15.2251C46.8086 15.1345 46.5307 15.1328 46.2751 15.2205C46.1742 15.2511 46.0879 15.3172 46.032 15.4066C46.0052 15.4525 45.9876 15.5033 45.9803 15.556C45.9731 15.6087 45.9763 15.6623 45.9898 15.7138C46.0033 15.7653 46.0268 15.8136 46.0589 15.856C46.0911 15.8984 46.1313 15.934 46.1772 15.9609C46.2238 15.9884 46.2755 16.0063 46.3292 16.0132C46.3829 16.0202 46.4374 16.0161 46.4895 16.0014H46.4897Z" fill="#211715"/>
<path d="M42.858 14.1172C42.7731 13.994 42.666 13.8877 42.5421 13.8037C42.4399 13.7357 42.3271 13.6853 42.2083 13.6545C42.0911 13.6213 41.9693 13.6076 41.8476 13.614C41.6943 13.624 41.5444 13.6635 41.4059 13.7302C41.3147 13.7839 41.2479 13.8711 41.2198 13.9732C41.1917 14.0785 41.2062 14.1907 41.2603 14.2853C41.3142 14.3765 41.4013 14.4432 41.5034 14.4714L41.6109 14.486C41.6828 14.4861 41.7534 14.4671 41.8154 14.4307C41.8225 14.4273 41.8298 14.4238 41.8373 14.4208L41.7405 14.4613C41.7961 14.4384 41.8543 14.4227 41.9139 14.4145L41.8061 14.4291C41.8704 14.4212 41.9354 14.4212 41.9997 14.4291L41.892 14.4147C41.9606 14.4241 42.0278 14.4422 42.0919 14.4684L41.9951 14.4279C42.0548 14.453 42.1113 14.4854 42.1632 14.5243L42.0811 14.4609C42.1256 14.4954 42.1659 14.535 42.201 14.579L42.1376 14.497C42.1449 14.5065 42.1522 14.5162 42.1591 14.5259C42.2147 14.6151 42.3006 14.6812 42.4011 14.712C42.5064 14.7402 42.6186 14.7256 42.7132 14.6715C42.8042 14.6179 42.8709 14.5312 42.8993 14.4295C42.9141 14.3774 42.9181 14.3229 42.9111 14.2692C42.9041 14.2155 42.8864 14.1638 42.8588 14.1172H42.858Z" fill="#211715"/>
<path d="M38.4518 13.3489C37.983 15.7216 38.0922 18.3604 39.5521 20.3882C40.0358 21.0762 40.6579 21.6556 41.3784 22.0893C42.283 22.6191 43.3548 22.7876 44.3914 22.768C45.8202 22.7406 47.315 22.3646 48.4823 21.5142C48.5727 21.4579 48.6381 21.3691 48.6652 21.2661C48.6922 21.163 48.6788 21.0536 48.6277 20.9601C48.5729 20.868 48.484 20.8011 48.3803 20.7739C48.2766 20.7467 48.1664 20.7613 48.0734 20.8147C47.114 21.4833 45.9877 21.8721 44.8202 21.9379C43.8651 22.0083 42.8189 21.9413 41.9574 21.4844C40.56 20.744 39.62 19.3013 39.2342 17.7466C38.9285 16.3689 38.9285 14.941 39.2342 13.5634C39.3354 13.0541 38.5543 12.8362 38.4531 13.3479L38.4518 13.3489Z" fill="#211715"/>
<path d="M42.1458 19.9536C42.2519 20.102 42.393 20.2219 42.5565 20.3027C42.7201 20.3835 42.9011 20.4226 43.0835 20.4166C43.2658 20.4105 43.4439 20.3596 43.6018 20.2682C43.7597 20.1769 43.8926 20.0479 43.9887 19.8928C44.4176 19.1806 44.1231 18.6548 43.8908 18.328C43.598 18.0509 42.9795 17.9098 42.6911 18.0511C42.2146 18.2848 41.7057 19.3223 42.1458 19.9536Z" fill="#211715"/>
<path d="M36.1246 24.5626C35.358 25.8588 35.1454 27.4307 35.1033 28.908C35.0605 30.4004 35.0978 31.9053 35.1235 33.3972C35.1581 34.2836 35.0933 35.171 34.9303 36.0429C34.8254 36.5516 35.6061 36.7693 35.7114 36.2582C36.0237 34.7439 35.9378 33.1943 35.9241 31.6578C35.9113 30.2242 35.8092 28.7545 36.0363 27.3323C36.1522 26.5039 36.4188 25.7038 36.8228 24.9715C37.0889 24.5217 36.389 24.1139 36.1236 24.5626H36.1246Z" fill="#211715"/>
<path d="M50.9501 33.4106C50.4473 35.8462 49.9503 38.2833 49.51 40.7311C49.4845 40.8347 49.4996 40.9441 49.5524 41.0369C49.6051 41.1296 49.6915 41.1985 49.7936 41.2295C49.8972 41.2571 50.0075 41.2428 50.1007 41.1897C50.1939 41.1367 50.2625 41.0492 50.2917 40.946C50.732 38.4982 51.229 36.0609 51.732 33.6254C51.8369 33.1165 51.0564 32.899 50.9507 33.41L50.9501 33.4106Z" fill="#211715"/>
<path d="M39.901 20.6484C38.0249 18.0874 36.5237 15.2838 35.1867 12.4129C34.891 11.778 34.5982 11.1415 34.3219 10.4979C34.267 10.406 34.1782 10.3392 34.0746 10.312C33.971 10.2848 33.8609 10.2994 33.7679 10.3525C32.5696 11.0279 31.3498 11.6636 30.1479 12.3321C29.8763 12.4832 29.4925 12.6231 29.3816 12.9396C29.273 13.2499 29.4842 13.5907 29.5978 13.8757C29.8527 14.5154 30.1143 15.1523 30.3824 15.7864C31.4039 18.2087 32.4989 20.6047 33.7201 22.9334C34.2444 23.933 34.7904 24.925 35.4054 25.8721C35.6889 26.3079 36.3898 25.9023 36.1049 25.4635C35.2897 24.1732 34.546 22.8391 33.8772 21.4672C33.005 19.7322 32.1931 17.9667 31.4251 16.1833C31.2064 15.6754 30.9919 15.1658 30.7816 14.6543C30.6795 14.4058 30.5782 14.157 30.4778 13.9079C30.4227 13.7708 30.3679 13.6335 30.3133 13.496C30.256 13.3856 30.2057 13.2717 30.1625 13.1551L30.0584 13.3337C30.2075 13.2074 30.3756 13.1054 30.5566 13.0314C30.7186 12.9415 30.8806 12.852 31.0426 12.763C31.3869 12.574 31.7321 12.3868 32.0783 12.2015C32.7802 11.823 33.4815 11.4435 34.1763 11.0518L33.6222 10.9064C34.735 13.5438 36.0421 16.0949 37.5328 18.5386C38.062 19.3949 38.6062 20.2446 39.2012 21.0571C39.2575 21.1475 39.3463 21.2129 39.4493 21.2399C39.5524 21.2669 39.6618 21.2534 39.7552 21.2023C39.8474 21.1476 39.9144 21.0588 39.9416 20.9551C39.9688 20.8514 39.9541 20.7412 39.9006 20.6482L39.901 20.6484Z" fill="#211715"/>
<path d="M63.6123 67.9032C64.3211 67.1525 64.5077 66.0696 64.5714 65.0751C64.6071 64.0578 64.5653 63.0393 64.4465 62.0284C64.2598 59.9338 64.0775 57.7715 63.3914 55.7707C62.8706 54.3466 62.1755 52.9925 61.3219 51.7394C60.4788 50.4416 59.5559 49.1975 58.5583 48.0143C56.5579 45.6559 54.2386 43.5877 51.6673 41.8693C49.0421 40.104 46.2919 38.4699 43.3352 37.3212C41.9384 36.7575 40.4751 36.3751 38.9811 36.1835C38.1603 36.0893 37.3368 36.0648 36.5179 35.9431C35.7335 35.8265 34.9544 35.6762 34.1788 35.5111C31.0246 34.84 27.9253 33.924 24.7517 33.3414C23.1656 33.0502 21.5369 32.8205 19.9202 32.8906C18.3326 32.9865 16.7757 33.3713 15.3261 34.0261C13.8598 34.6929 12.4396 35.4567 11.0749 36.3125C9.89689 37.0177 8.72837 37.7414 7.59428 38.5132C5.54105 39.9291 3.5945 41.4936 1.77031 43.1944C1.21677 43.7038 0.667951 44.2188 0.123857 44.7394C-0.254241 45.0999 0.319083 45.671 0.696573 45.3123C2.56479 43.5314 4.47006 41.7798 6.54747 40.2431C8.71677 38.6659 10.9826 37.226 13.3318 35.9318C14.7245 35.1501 16.1731 34.4441 17.7241 34.0382C19.2276 33.6447 20.7578 33.6332 22.296 33.7926C25.4372 34.1166 28.5079 35.0024 31.5698 35.7428C33.0769 36.1073 34.5909 36.4591 36.1238 36.6975C37.6236 36.9306 39.1382 36.9354 40.6174 37.2998C43.5626 38.025 46.3114 39.4719 48.8851 41.0437C51.4994 42.6401 53.9845 44.3911 56.1449 46.575C58.3019 48.7274 60.1509 51.1677 61.6394 53.8265C62.3492 55.1175 62.8531 56.5114 63.133 57.9578C63.2808 58.7173 63.361 59.4421 63.4499 60.2145C63.5741 61.2937 63.6826 62.3761 63.7425 63.461C63.8011 64.5242 63.8438 65.6654 63.4477 66.6741C63.3845 66.831 63.3058 66.9812 63.2126 67.1223C63.1635 67.1983 63.1054 67.268 63.0396 67.3301C62.682 67.7092 63.2537 68.2833 63.6123 67.9032Z" fill="#211715"/>
</g>
</svg>
