<svg width="222" height="125" viewBox="0 0 222 125" fill="none" xmlns="http://www.w3.org/2000/svg">
<path d="M159 103.54H156.7V113H154.88V103.54H153.46V102.04H154.88V101.26C154.88 100.033 155.193 99.14 155.82 98.58C156.46 98.0067 157.48 97.72 158.88 97.72V99.24C158.08 99.24 157.513 99.4 157.18 99.72C156.86 100.027 156.7 100.54 156.7 101.26V102.04H159V103.54ZM162.062 100.26C161.715 100.26 161.422 100.14 161.182 99.9C160.942 99.66 160.822 99.3667 160.822 99.02C160.822 98.6733 160.942 98.38 161.182 98.14C161.422 97.9 161.715 97.78 162.062 97.78C162.395 97.78 162.675 97.9 162.902 98.14C163.142 98.38 163.262 98.6733 163.262 99.02C163.262 99.3667 163.142 99.66 162.902 99.9C162.675 100.14 162.395 100.26 162.062 100.26ZM162.942 102.04V113H161.122V102.04H162.942ZM171.384 101.84C172.717 101.84 173.797 102.247 174.624 103.06C175.451 103.86 175.864 105.02 175.864 106.54V113H174.064V106.8C174.064 105.707 173.791 104.873 173.244 104.3C172.697 103.713 171.951 103.42 171.004 103.42C170.044 103.42 169.277 103.72 168.704 104.32C168.144 104.92 167.864 105.793 167.864 106.94V113H166.044V102.04H167.864V103.6C168.224 103.04 168.711 102.607 169.324 102.3C169.951 101.993 170.637 101.84 171.384 101.84ZM188.837 107.1C188.837 107.447 188.817 107.813 188.777 108.2H180.017C180.084 109.28 180.45 110.127 181.117 110.74C181.797 111.34 182.617 111.64 183.577 111.64C184.364 111.64 185.017 111.46 185.537 111.1C186.07 110.727 186.444 110.233 186.657 109.62H188.617C188.324 110.673 187.737 111.533 186.857 112.2C185.977 112.853 184.884 113.18 183.577 113.18C182.537 113.18 181.604 112.947 180.777 112.48C179.964 112.013 179.324 111.353 178.857 110.5C178.39 109.633 178.157 108.633 178.157 107.5C178.157 106.367 178.384 105.373 178.837 104.52C179.29 103.667 179.924 103.013 180.737 102.56C181.564 102.093 182.51 101.86 183.577 101.86C184.617 101.86 185.537 102.087 186.337 102.54C187.137 102.993 187.75 103.62 188.177 104.42C188.617 105.207 188.837 106.1 188.837 107.1ZM186.957 106.72C186.957 106.027 186.804 105.433 186.497 104.94C186.19 104.433 185.77 104.053 185.237 103.8C184.717 103.533 184.137 103.4 183.497 103.4C182.577 103.4 181.79 103.693 181.137 104.28C180.497 104.867 180.13 105.68 180.037 106.72H186.957Z" fill="white"/>
<path d="M72.064 77.752C72.064 75.064 72.608 72.712 73.696 70.696C74.784 68.648 76.272 67.064 78.16 65.944C80.08 64.824 82.208 64.264 84.544 64.264C86.848 64.264 88.848 64.76 90.544 65.752C92.24 66.744 93.504 67.992 94.336 69.496V64.696H98.752V91H94.336V86.104C93.472 87.64 92.176 88.92 90.448 89.944C88.752 90.936 86.768 91.432 84.496 91.432C82.16 91.432 80.048 90.856 78.16 89.704C76.272 88.552 74.784 86.936 73.696 84.856C72.608 82.776 72.064 80.408 72.064 77.752ZM94.336 77.8C94.336 75.816 93.936 74.088 93.136 72.616C92.336 71.144 91.248 70.024 89.872 69.256C88.528 68.456 87.04 68.056 85.408 68.056C83.776 68.056 82.288 68.44 80.944 69.208C79.6 69.976 78.528 71.096 77.728 72.568C76.928 74.04 76.528 75.768 76.528 77.752C76.528 79.768 76.928 81.528 77.728 83.032C78.528 84.504 79.6 85.64 80.944 86.44C82.288 87.208 83.776 87.592 85.408 87.592C87.04 87.592 88.528 87.208 89.872 86.44C91.248 85.64 92.336 84.504 93.136 83.032C93.936 81.528 94.336 79.784 94.336 77.8ZM120.822 91L110.502 79.384V91H106.134V55.48H110.502V76.36L120.63 64.696H126.726L114.342 77.8L126.774 91H120.822ZM154.837 76.84C154.837 77.672 154.789 78.552 154.693 79.48H133.669C133.829 82.072 134.709 84.104 136.309 85.576C137.941 87.016 139.909 87.736 142.213 87.736C144.101 87.736 145.669 87.304 146.917 86.44C148.197 85.544 149.093 84.36 149.605 82.888H154.309C153.605 85.416 152.197 87.48 150.085 89.08C147.973 90.648 145.349 91.432 142.213 91.432C139.717 91.432 137.477 90.872 135.493 89.752C133.541 88.632 132.005 87.048 130.885 85C129.765 82.92 129.205 80.52 129.205 77.8C129.205 75.08 129.749 72.696 130.837 70.648C131.925 68.6 133.445 67.032 135.397 65.944C137.381 64.824 139.653 64.264 142.213 64.264C144.709 64.264 146.917 64.808 148.837 65.896C150.757 66.984 152.229 68.488 153.253 70.408C154.309 72.296 154.837 74.44 154.837 76.84ZM150.325 75.928C150.325 74.264 149.957 72.84 149.221 71.656C148.485 70.44 147.477 69.528 146.197 68.92C144.949 68.28 143.557 67.96 142.021 67.96C139.813 67.96 137.925 68.664 136.357 70.072C134.821 71.48 133.941 73.432 133.717 75.928H150.325ZM164.874 57.544V78.712C164.874 81.688 165.594 83.896 167.034 85.336C168.506 86.776 170.538 87.496 173.13 87.496C175.69 87.496 177.69 86.776 179.13 85.336C180.602 83.896 181.338 81.688 181.338 78.712V57.544H185.706V78.664C185.706 81.448 185.146 83.8 184.026 85.72C182.906 87.608 181.386 89.016 179.466 89.944C177.578 90.872 175.45 91.336 173.082 91.336C170.714 91.336 168.57 90.872 166.65 89.944C164.762 89.016 163.258 87.608 162.138 85.72C161.05 83.8 160.506 81.448 160.506 78.664V57.544H164.874ZM197.361 69.544C198.225 68.04 199.505 66.792 201.201 65.8C202.929 64.776 204.929 64.264 207.201 64.264C209.537 64.264 211.649 64.824 213.537 65.944C215.457 67.064 216.961 68.648 218.049 70.696C219.137 72.712 219.681 75.064 219.681 77.752C219.681 80.408 219.137 82.776 218.049 84.856C216.961 86.936 215.457 88.552 213.537 89.704C211.649 90.856 209.537 91.432 207.201 91.432C204.961 91.432 202.977 90.936 201.249 89.944C199.553 88.92 198.257 87.656 197.361 86.152V103.48H192.993V64.696H197.361V69.544ZM215.217 77.752C215.217 75.768 214.817 74.04 214.017 72.568C213.217 71.096 212.129 69.976 210.753 69.208C209.409 68.44 207.921 68.056 206.289 68.056C204.689 68.056 203.201 68.456 201.825 69.256C200.481 70.024 199.393 71.16 198.561 72.664C197.761 74.136 197.361 75.848 197.361 77.8C197.361 79.784 197.761 81.528 198.561 83.032C199.393 84.504 200.481 85.64 201.825 86.44C203.201 87.208 204.689 87.592 206.289 87.592C207.921 87.592 209.409 87.208 210.753 86.44C212.129 85.64 213.217 84.504 214.017 83.032C214.817 81.528 215.217 79.768 215.217 77.752Z" fill="white"/>
<path d="M77.9146 45.716L63.5506 92H53.4706L44.1466 57.812L34.8226 92H24.7426L10.2946 45.716H20.0386L29.6986 82.928L39.5266 45.716H49.5226L58.9306 82.76L68.5066 45.716H77.9146Z" fill="white"/>
<path d="M22.51 42.9641C22.2034 43.7206 21.7739 44.5896 21.3828 45.3309C21.6359 45.4612 23.5429 46.2358 24.0642 46.3687C24.3811 45.561 24.7109 44.7902 24.9631 43.9946C24.546 43.8395 23.3645 43.2878 22.51 42.9641Z" fill="white"/>
<path d="M66.3923 43.4753C65.7073 44.1295 64.8688 44.9065 64.3167 45.4842C64.8995 46.0363 65.5028 46.614 66.042 47.1023C66.658 46.4708 67.4146 45.7858 68.0282 45.1009C67.7626 44.8213 66.8984 43.9819 66.3923 43.4753Z" fill="white"/>
<path d="M62.9673 37.6978C62.088 36.8901 61.1474 36.0415 60.2988 35.3462C59.4399 36.2204 58.6833 37.115 57.9165 37.984C58.4402 38.4842 59.716 39.6557 60.5594 40.3151C61.2035 39.625 62.4765 38.2804 62.9673 37.6978Z" fill="white"/>
<path d="M22.0842 42.8468C21.7688 43.6198 21.3906 44.3694 21.0015 45.1083C20.944 45.2098 20.9284 45.3297 20.958 45.4426C20.9876 45.5554 21.0601 45.6523 21.16 45.7125C21.5851 45.9278 22.0434 46.0919 22.4851 46.2671C22.9611 46.4722 23.449 46.6484 23.9461 46.7948C24.0589 46.8225 24.1781 46.806 24.2791 46.7487C24.3802 46.6913 24.4554 46.5974 24.4894 46.4863C24.7991 45.6987 25.1304 44.9187 25.3882 44.1123C25.4168 43.9994 25.4006 43.8798 25.3432 43.7786C25.2857 43.6773 25.1913 43.6022 25.0798 43.5688C24.7649 43.4503 24.457 43.3067 24.0729 43.1398C23.5944 42.9317 23.1146 42.7245 22.6268 42.5384C22.514 42.5085 22.3939 42.524 22.2924 42.5817C22.191 42.6394 22.1162 42.7346 22.0842 42.8468C22.0557 42.9597 22.0719 43.0792 22.1294 43.1804C22.1868 43.2816 22.2812 43.3568 22.3927 43.3901C23.2208 43.7057 24.0133 44.1078 24.8457 44.4207L24.5372 43.8774C24.2796 44.6841 23.9483 45.464 23.6384 46.2515L24.1817 45.9429C23.698 45.8009 23.2233 45.6299 22.7602 45.4309C22.5025 45.3295 22.2464 45.2259 21.9917 45.1199L21.8996 45.0816C21.9431 45.1 21.9618 45.1083 21.9072 45.0847C21.8628 45.0663 21.8187 45.0468 21.7745 45.0275C21.7176 45.0026 21.6608 44.9778 21.6054 44.9498L21.7638 45.554C22.1889 44.7466 22.5909 43.9268 22.9356 43.0817C22.9659 42.9687 22.9506 42.8483 22.8928 42.7466C22.835 42.6449 22.7395 42.57 22.627 42.5382C22.5142 42.5102 22.3949 42.5266 22.2939 42.5841C22.1929 42.6415 22.1178 42.7356 22.0842 42.8468Z" fill="#211715"/>
<path d="M66.08 43.1632C65.3838 43.8278 64.671 44.4776 64.0044 45.1723C63.9231 45.256 63.8776 45.368 63.8776 45.4846C63.8776 45.6013 63.9231 45.7133 64.0044 45.797C64.5768 46.3393 65.1454 46.8853 65.7297 47.415C65.8136 47.4959 65.9255 47.5412 66.042 47.5412C66.1586 47.5412 66.2705 47.4959 66.3544 47.415C67.0119 46.7433 67.7111 46.1126 68.3405 45.4136C68.421 45.3296 68.4659 45.2177 68.4659 45.1013C68.4659 44.9849 68.421 44.873 68.3405 44.789C67.8099 44.233 67.2482 43.7063 66.7046 43.1632C66.3019 42.7611 65.6769 43.3855 66.08 43.7889C66.6236 44.3318 67.1853 44.8586 67.7158 45.4145V44.789C67.0864 45.4883 66.3873 46.1186 65.7297 46.7904H66.3544C65.7704 46.2607 65.2014 45.7147 64.629 45.1723V45.797C65.2956 45.1022 66.0093 44.4535 66.7046 43.788C67.1175 43.3946 66.4918 42.7707 66.08 43.1632Z" fill="#211715"/>
<path d="M63.2795 37.3859C62.4063 36.5833 61.5273 35.787 60.611 35.0343C60.5269 34.9539 60.4151 34.909 60.2987 34.909C60.1824 34.909 60.0705 34.9539 59.9864 35.0343C59.157 35.8809 58.3877 36.7827 57.6041 37.6721C57.5232 37.7559 57.478 37.8679 57.478 37.9844C57.478 38.1009 57.5232 38.2129 57.6041 38.2967C58.4527 39.1065 59.3246 39.9033 60.247 40.6279C60.3311 40.7084 60.443 40.7533 60.5594 40.7533C60.6758 40.7533 60.7877 40.7084 60.8718 40.6279C61.6799 39.7629 62.5145 38.9149 63.2795 38.0105C63.3595 37.9262 63.4042 37.8145 63.4042 37.6982C63.4042 37.582 63.3595 37.4702 63.2795 37.3859C63.1963 37.3039 63.0841 37.258 62.9672 37.258C62.8504 37.258 62.7382 37.3039 62.6549 37.3859C61.8899 38.2903 61.0553 39.1378 60.247 40.0033H60.8718C59.9492 39.2787 59.0773 38.4813 58.2287 37.6721V38.2967C59.0123 37.4078 59.7816 36.506 60.611 35.6589H59.9864C60.9027 36.4116 61.7817 37.2087 62.6549 38.0105C63.073 38.3944 63.6993 37.7713 63.2795 37.3859Z" fill="#211715"/>
<path d="M3.9015 54.1267C5.40194 55.0537 6.26175 55.5824 7.8244 55.9507C8.02978 55.9991 9.34803 57.1837 9.51642 57.3812C9.51642 57.3812 9.5928 57.4703 9.71426 57.6133C10.8766 56.1903 12.1351 54.7383 13.425 53.3711C13.2303 53.1593 13.0387 52.9446 12.8502 52.727C12.7411 52.0219 12.4987 51.0872 12.3349 50.3971C12.1141 49.4684 11.8862 48.5238 11.3989 47.7032C11.0397 47.0982 10.5209 46.5156 9.82431 46.6148C9.69738 46.646 9.58345 46.7163 9.49857 46.8157C9.4328 46.8963 9.38621 46.9907 9.36233 47.0919C9.33845 47.1931 9.3379 47.2984 9.36073 47.3999C9.51201 48.0734 9.61617 48.4233 9.78254 49.0361L9.19362 48.489C8.26112 47.624 6.35616 46.0456 5.42366 45.18C5.19859 44.9654 4.9392 44.79 4.65623 44.6611C4.51047 44.586 4.34915 44.5462 4.18523 44.5448C4.02131 44.5434 3.85934 44.5805 3.71231 44.653C3.56249 44.7517 3.44399 44.8912 3.37077 45.0551C3.29754 45.2189 3.27263 45.4002 3.29897 45.5777C3.3503 45.7948 3.42973 46.0043 3.53527 46.2009L3.62305 46.3407C3.43583 46.1725 3.25179 46.0062 3.07094 45.8416C2.71244 45.5166 2.35707 45.2822 1.89569 45.3622C1.68838 45.405 1.50342 45.521 1.37471 45.6891C1.246 45.8572 1.18216 46.066 1.19489 46.2773C1.22783 46.6902 1.48069 47.0219 1.77809 47.3104C1.92716 47.4551 2.08838 47.6078 2.2588 47.7667C2.02455 47.5642 1.75402 47.4081 1.46155 47.3066C1.28258 47.2609 1.09364 47.2745 0.923043 47.3453C0.752442 47.4161 0.609364 47.5402 0.515243 47.6991C0.452454 47.8509 0.42598 48.0152 0.43793 48.179C0.44988 48.3429 0.499923 48.5016 0.584072 48.6427C0.753539 48.9327 0.963628 49.1969 1.20795 49.4274C1.53627 49.7426 1.9544 50.1186 2.40786 50.5075C2.12378 50.3536 1.81 50.2624 1.48769 50.2401C1.08097 50.2241 0.817797 50.4241 0.742159 50.6588C0.688918 50.8174 0.674887 50.9866 0.701262 51.1519C0.727638 51.3172 0.793638 51.4736 0.89362 51.6078C1.19543 51.9962 1.53742 52.3516 1.91391 52.6681C2.54012 53.2019 3.20441 53.6894 3.9015 54.1267Z" fill="white"/>
<path d="M10.298 50.3516C10.307 49.956 10.2947 49.5602 10.2612 49.1659C10.1853 48.7909 10.0897 48.4201 9.97467 48.0552C9.9256 47.8675 9.8791 47.6792 9.83517 47.4904C9.80168 47.3476 9.74003 47.2007 9.85634 47.0806C9.9075 47.0278 9.89683 47.0519 9.92498 47.0478C9.991 47.0406 10.0578 47.0458 10.1219 47.0631C10.2632 47.1007 10.3932 47.172 10.5008 47.2709C11.1175 47.8046 11.4181 48.6824 11.6358 49.4414C11.875 50.2765 12.0697 51.1317 12.2573 51.98C12.3082 52.2109 12.3565 52.4424 12.3971 52.6756C12.4088 52.808 12.4579 52.9343 12.5387 53.0398C12.6318 53.1537 12.7328 53.2623 12.8309 53.3711C13.2044 53.7895 13.5896 54.1968 13.9865 54.5931C14.3884 54.9961 15.0132 54.3722 14.6111 53.9685C14.1109 53.4669 13.6283 52.9489 13.1633 52.4143L13.2768 52.6092C13.148 51.7965 12.933 50.9992 12.742 50.1996C12.5339 49.3288 12.3086 48.4513 11.8809 47.6577C11.5163 46.9814 10.9618 46.2736 10.1478 46.1751C9.9478 46.142 9.74246 46.1667 9.55598 46.2463C9.36949 46.3259 9.20962 46.4572 9.09517 46.6245C8.81911 47.0388 8.91886 47.4652 9.02763 47.9144C9.12756 48.3265 9.2446 48.7338 9.3541 49.1432C9.45919 49.5363 9.39791 49.9482 9.41484 50.3507C9.43858 50.917 10.3221 50.9201 10.2982 50.3507L10.298 50.3516Z" fill="#211715"/>
<path d="M4.12489 53.7463C3.24541 53.1894 2.42253 52.5477 1.66802 51.8305C1.50257 51.6802 1.35721 51.5092 1.23553 51.3216C1.1871 51.2405 1.15609 51.1501 1.1445 51.0563C1.1329 50.9625 1.14096 50.8673 1.16818 50.7767C1.1553 50.849 1.19578 50.7537 1.15253 50.7966C1.16284 50.7863 1.2486 50.7101 1.19431 50.7497C1.24289 50.7108 1.30228 50.6879 1.36436 50.6841C1.61649 50.6737 1.86709 50.7281 2.09222 50.8421C2.20507 50.8724 2.32533 50.8571 2.427 50.7995C2.52867 50.7419 2.60357 50.6466 2.63549 50.5342C2.66371 50.4213 2.64742 50.3019 2.58999 50.2008C2.53256 50.0996 2.43841 50.0245 2.32705 49.9909C1.7582 49.7579 0.98359 49.6633 0.527918 50.1727C0.0505296 50.7064 0.244135 51.4965 0.641468 52.0079C1.06243 52.5216 1.54392 52.9826 2.07547 53.3808C2.59077 53.7846 3.13497 54.1462 3.67897 54.5099C3.72906 54.5392 3.78443 54.5583 3.84191 54.5662C3.89939 54.5741 3.95786 54.5705 4.01398 54.5558C4.0701 54.5411 4.12277 54.5155 4.16899 54.4804C4.21521 54.4453 4.25407 54.4015 4.28335 54.3514C4.31263 54.3013 4.33175 54.246 4.33964 54.1885C4.34752 54.131 4.344 54.0725 4.32929 54.0164C4.31458 53.9603 4.28895 53.9076 4.25388 53.8614C4.21881 53.8152 4.17498 53.7763 4.12489 53.7471V53.7463Z" fill="#211715"/>
<path d="M2.27848 47.2336C1.76778 46.8546 1.10562 46.6846 0.537502 47.0495C-0.109936 47.4649 -0.125027 48.3194 0.240468 48.9318C0.562715 49.4714 1.04342 49.8903 1.50663 50.3051C1.98365 50.7322 2.47123 51.1474 2.96935 51.5507C3.51778 51.9964 4.07577 52.4324 4.65383 52.8389C4.75523 52.897 4.87539 52.9129 4.98842 52.8833C5.10146 52.8537 5.19834 52.7808 5.2582 52.6804C5.31487 52.5787 5.33002 52.459 5.30049 52.3464C5.27096 52.2338 5.19903 52.1369 5.09975 52.0761C4.03718 51.3167 3.02108 50.4944 2.0569 49.6135C1.83808 49.4164 1.61521 49.2195 1.41149 49.0075C1.19764 48.7866 0.921032 48.4896 0.879072 48.1705C0.865414 48.1215 0.862597 48.0701 0.870819 48.02C0.879041 47.9698 0.898103 47.922 0.926678 47.88C0.955253 47.8379 0.992652 47.8026 1.03627 47.7765C1.07989 47.7504 1.12868 47.7341 1.17923 47.7288C1.40008 47.6892 1.64779 47.8602 1.83256 47.9973C1.93391 48.0556 2.05414 48.0717 2.16725 48.042C2.28036 48.0124 2.37724 47.9394 2.43693 47.8388C2.49337 47.7371 2.50839 47.6175 2.47888 47.5049C2.44937 47.3923 2.37759 47.2955 2.27848 47.2345V47.2336Z" fill="#211715"/>
<path d="M7.10761 48.8363C6.28301 48.1195 5.46313 47.3969 4.64798 46.6685C4.24531 46.3087 3.84374 45.9475 3.44328 45.5849C3.07521 45.2525 2.68377 44.9539 2.17344 44.9097C1.93468 44.8911 1.69537 44.9378 1.48112 45.0448C1.26686 45.1517 1.08574 45.315 0.957146 45.517C0.831803 45.7264 0.762715 45.9646 0.756588 46.2085C0.750461 46.4525 0.807504 46.6938 0.92218 46.9092C1.11597 47.3196 1.46803 47.6305 1.79267 47.9362C2.12749 48.2512 2.46697 48.5612 2.81112 48.8661C3.61167 49.5789 4.42818 50.2735 5.26063 50.9499C5.3451 51.0296 5.45682 51.074 5.57294 51.074C5.68906 51.074 5.80078 51.0296 5.88525 50.9499C5.96756 50.8666 6.01372 50.7542 6.01372 50.6371C6.01372 50.5199 5.96756 50.4075 5.88525 50.3242C4.61191 49.2925 3.36194 48.2209 2.18006 47.0852C1.94431 46.8586 1.65961 46.5936 1.63458 46.2454C1.63152 46.1834 1.64175 46.1214 1.66456 46.0636C1.68738 46.0058 1.72227 45.9535 1.7669 45.9103C1.81153 45.867 1.86487 45.8338 1.92336 45.8128C1.98185 45.7919 2.04415 45.7836 2.10608 45.7886C2.45575 45.8155 2.73033 46.1293 2.97381 46.3494C3.32237 46.6651 3.67222 46.98 4.02336 47.2942C4.83778 48.0217 5.6576 48.7439 6.48281 49.4609C6.91033 49.8321 7.5377 49.2099 7.10853 48.8363H7.10761Z" fill="#211715"/>
<path d="M9.5052 48.1771C8.61704 47.3548 7.68325 46.5819 6.76969 45.7881C6.3223 45.3994 5.897 44.9682 5.42495 44.6103C4.84487 44.1704 3.99057 43.8592 3.35252 44.371C3.20254 44.4949 3.07983 44.6484 2.99213 44.822C2.90443 44.9957 2.85362 45.1855 2.84293 45.3797C2.85087 45.7493 2.95804 46.1099 3.15321 46.4238C3.43791 46.9157 4.20221 46.4714 3.91585 45.9779C3.78574 45.753 3.66225 45.4707 3.77139 45.231C3.88825 44.9749 4.14682 44.9443 4.39711 45.0315C4.97332 45.2329 5.42955 45.7861 5.87896 46.1799C6.87772 47.0545 7.90593 47.8986 8.88058 48.801C9.29742 49.1874 9.92351 48.5636 9.5052 48.1763V48.1771Z" fill="#211715"/>
<path d="M7.14162 48.8066C6.07661 49.828 5.25802 51.0681 4.4547 52.2961C4.40162 52.3968 4.38944 52.5141 4.4207 52.6235C4.45196 52.7329 4.52425 52.826 4.6225 52.8835C4.72075 52.9409 4.83737 52.9582 4.94805 52.9317C5.05874 52.9053 5.15494 52.8371 5.21661 52.7415C5.98109 51.5742 6.75404 50.4028 7.76624 49.4313C8.17719 49.0369 7.55202 48.4128 7.14052 48.8066H7.14162Z" fill="#211715"/>
<path d="M84.0928 54.1267C82.5924 55.0537 81.7326 55.5824 80.1699 55.9507C79.9644 55.9991 78.6463 57.1837 78.4777 57.3812C78.4777 57.3812 78.4015 57.4703 78.2801 57.6133C77.1175 56.1903 75.8591 54.7383 74.5692 53.3711C74.764 53.1593 74.9556 52.9446 75.1439 52.727C75.2531 52.0219 75.4956 51.0872 75.6592 50.3971C75.8801 49.4684 76.1079 48.5238 76.5951 47.7032C76.9543 47.0982 77.4731 46.5156 78.1697 46.6148C78.2966 46.6459 78.4106 46.7162 78.4954 46.8157C78.5612 46.8963 78.6078 46.9907 78.6316 47.0919C78.6555 47.1931 78.6561 47.2984 78.6332 47.3999C78.482 48.0734 78.378 48.4233 78.2114 49.0361L78.8004 48.489C79.7329 47.624 81.638 46.0456 82.5705 45.18C82.7955 44.9654 83.0549 44.79 83.3379 44.6611C83.4837 44.586 83.645 44.5462 83.8089 44.5448C83.9728 44.5434 84.1348 44.5805 84.2818 44.653C84.4316 44.7518 84.5501 44.8913 84.6233 45.0551C84.6965 45.2189 84.7214 45.4003 84.695 45.5777C84.6438 45.7949 84.5643 46.0044 84.4587 46.2009L84.3711 46.3407C84.5581 46.1725 84.7421 46.0062 84.9232 45.8416C85.2815 45.5166 85.6369 45.2822 86.0983 45.3622C86.3056 45.405 86.4906 45.521 86.6193 45.6891C86.7481 45.8571 86.812 46.0659 86.7993 46.2773C86.7661 46.6902 86.5133 47.0219 86.2159 47.3104C86.0668 47.4551 85.9056 47.6078 85.7352 47.7667C85.9694 47.5643 86.24 47.4082 86.5324 47.3066C86.7113 47.2612 86.9 47.2748 87.0704 47.3455C87.2409 47.4163 87.3838 47.5402 87.478 47.6989C87.5408 47.8507 87.5672 48.0151 87.5552 48.1789C87.5432 48.3427 87.4932 48.5014 87.409 48.6425C87.2396 48.9326 87.0295 49.1968 86.7851 49.4272C86.4568 49.7425 86.0387 50.1184 85.5854 50.5073C85.8694 50.3534 86.1832 50.2622 86.5056 50.2399C86.9123 50.2239 87.1754 50.4239 87.2513 50.6586C87.3045 50.8173 87.3185 50.9865 87.2922 51.1517C87.2658 51.317 87.1998 51.4734 87.0998 51.6077C86.7978 51.9962 86.4557 52.3517 86.079 52.6682C85.4527 53.2021 84.7884 53.6896 84.0914 54.1269" fill="white"/>
<path d="M78.58 50.3509C78.5655 50.0036 78.5721 49.6557 78.5999 49.3091C78.6623 48.9335 78.8033 48.5603 78.8981 48.1911C78.9976 47.8046 79.1667 47.3574 79.0536 46.9581C78.9989 46.7491 78.8819 46.5617 78.7181 46.4209C78.5543 46.2801 78.3515 46.1925 78.1367 46.1698C77.3179 46.0927 76.6893 46.7273 76.2859 47.364C75.8018 48.1276 75.5436 49.011 75.3298 49.8815C75.1078 50.7849 74.864 51.6907 74.7179 52.61L74.8314 52.4151C74.3669 52.9498 73.8843 53.4678 73.3836 53.9693C72.9817 54.3721 73.6061 54.9971 74.0084 54.5939C74.3626 54.2387 74.7084 53.8752 75.0456 53.5035C75.2231 53.3351 75.3838 53.1498 75.5252 52.9503C75.6032 52.7474 75.6505 52.534 75.6657 52.3172C75.8374 51.4732 76.0448 50.6312 76.2617 49.7977C76.4703 48.9972 76.7303 48.123 77.2839 47.4851C77.4714 47.2691 77.7289 47.025 78.0384 47.046C78.1061 47.0504 78.17 47.0703 78.2028 47.1933C78.2453 47.353 78.1376 47.5945 78.0988 47.7522C77.9922 48.1845 77.8476 48.6107 77.7545 49.0458C77.6624 49.476 77.7158 49.9162 77.6976 50.3524C77.6737 50.9209 78.557 50.9196 78.581 50.3524L78.58 50.3509Z" fill="#211715"/>
<path d="M84.3157 54.5089C84.8494 54.1515 85.3858 53.7966 85.893 53.4004C86.4344 52.9967 86.9248 52.5288 87.3534 52.0069C87.747 51.5001 87.941 50.7242 87.4796 50.1881C87.0271 49.6623 86.2444 49.7536 85.6678 49.9899C85.5568 50.0241 85.4631 50.0994 85.4058 50.2003C85.3484 50.3013 85.3317 50.4203 85.3592 50.5331C85.391 50.6457 85.4658 50.7412 85.5675 50.799C85.6693 50.8567 85.7896 50.8721 85.9026 50.8418C86.1282 50.729 86.3785 50.6747 86.6305 50.6839C86.6924 50.6879 86.7517 50.7107 86.8003 50.7494C86.7479 50.7115 86.8393 50.7935 86.8423 50.7963C86.7932 50.7481 86.8462 50.8592 86.8267 50.7764C86.8546 50.8608 86.8645 50.95 86.8559 51.0384C86.8474 51.1268 86.8204 51.2125 86.7768 51.2899C86.6528 51.4902 86.5013 51.672 86.3268 51.8302C85.5723 52.5474 84.7494 53.189 83.8699 53.746C83.7708 53.807 83.699 53.9038 83.6695 54.0164C83.64 54.129 83.655 54.2486 83.7115 54.3504C83.7714 54.4506 83.8683 54.5234 83.9812 54.553C84.0942 54.5826 84.2143 54.5668 84.3157 54.5089Z" fill="#211715"/>
<path d="M86.1619 47.9955C86.346 47.8586 86.5952 47.6876 86.8155 47.727C86.8659 47.7325 86.9146 47.749 86.9581 47.7751C87.0016 47.8013 87.0389 47.8366 87.0674 47.8786C87.096 47.9206 87.115 47.9683 87.1234 48.0183C87.1317 48.0684 87.129 48.1197 87.1156 48.1687C87.0737 48.4891 86.7982 48.783 86.5832 49.0057C86.3784 49.2175 86.1566 49.4144 85.9376 49.6117C84.9736 50.4929 83.9575 51.3155 82.8949 52.075C82.7961 52.1362 82.7245 52.2331 82.695 52.3456C82.6655 52.458 82.6804 52.5775 82.7365 52.6794C82.7963 52.7798 82.8932 52.8527 83.0062 52.8824C83.1193 52.912 83.2395 52.896 83.3409 52.8378C84.3732 52.1007 85.3643 51.3075 86.3099 50.4619C86.787 50.0743 87.2209 49.6362 87.6039 49.1553C88.0098 48.6006 88.2174 47.7472 87.6607 47.2075C87.0967 46.6605 86.2974 46.8026 85.716 47.2332C85.6175 47.2948 85.5463 47.3916 85.5168 47.504C85.4874 47.6163 85.502 47.7356 85.5576 47.8376C85.6173 47.9381 85.7142 48.0111 85.8273 48.0407C85.9404 48.0704 86.0606 48.0543 86.1619 47.9961V47.9955Z" fill="#211715"/>
<path d="M81.5119 49.4609C82.2383 48.8299 82.9607 48.1944 83.6789 47.5543C84.0335 47.2385 84.3871 46.9217 84.7399 46.6039C85.0251 46.3463 85.3208 45.9882 85.6832 45.8378C85.7413 45.8072 85.8052 45.7891 85.8708 45.7847C85.9363 45.7803 86.0021 45.7896 86.0638 45.8122C86.1255 45.8347 86.1818 45.8699 86.229 45.9156C86.2763 45.9612 86.3135 46.0162 86.3382 46.077C86.4471 46.3732 86.1985 46.693 86.0084 46.894C85.4694 47.4636 84.8593 47.9781 84.2713 48.4951C83.5629 49.1186 82.8424 49.7281 82.11 50.3237C82.0276 50.4069 81.9814 50.5194 81.9814 50.6365C81.9814 50.7537 82.0276 50.8661 82.11 50.9494C82.1941 51.0297 82.306 51.0746 82.4223 51.0746C82.5386 51.0746 82.6505 51.0297 82.7346 50.9494C83.468 50.3551 84.1885 49.7455 84.8959 49.1208C85.2511 48.8082 85.6026 48.4916 85.9504 48.171C86.2925 47.8805 86.6067 47.5588 86.889 47.21C87.0403 47.0213 87.1462 46.8003 87.1983 46.5641C87.2505 46.328 87.2476 46.083 87.1899 45.8481C87.1228 45.6237 86.9974 45.421 86.8265 45.2608C86.6556 45.1006 86.4452 44.9886 86.2169 44.9362C85.972 44.8968 85.7214 44.9125 85.4833 44.9821C85.2452 45.0516 85.0256 45.1733 84.8403 45.3383C84.4314 45.66 84.0574 46.0327 83.6701 46.38C82.7488 47.2057 81.8214 48.0244 80.8878 48.8363C80.4579 49.2097 81.0849 49.8323 81.5124 49.4609H81.5119Z" fill="#211715"/>
<path d="M79.1141 48.8018C80.0895 47.9 81.117 47.0553 82.1161 46.1804C82.5622 45.79 83.0123 45.2458 83.5801 45.0375C83.8339 44.9444 84.1033 44.9683 84.2242 45.2315C84.3335 45.4707 84.2099 45.7534 84.0797 45.9783C83.7945 46.4713 84.5582 46.9169 84.8426 46.4242C85.1825 45.8368 85.2843 45.1415 84.8452 44.5772C84.3265 43.9118 83.4389 44.0516 82.7998 44.4502C82.2944 44.7655 81.8684 45.2274 81.4212 45.6181C80.9353 46.0425 80.4458 46.4619 79.957 46.8834C79.4634 47.309 78.9687 47.7344 78.4904 48.1771C78.0723 48.5636 78.6982 49.1879 79.115 48.8018H79.1141Z" fill="#211715"/>
<path d="M80.2284 49.4312C81.2406 50.4027 82.0135 51.5741 82.7782 52.742C82.8391 52.8412 82.9359 52.913 83.0485 52.9425C83.161 52.972 83.2807 52.957 83.3824 52.9005C83.4826 52.8405 83.5553 52.7436 83.5849 52.6306C83.6146 52.5176 83.5987 52.3975 83.5408 52.2961C82.7366 51.068 81.918 49.828 80.853 48.8066C80.4426 48.4129 79.8171 49.0366 80.2284 49.4312Z" fill="#211715"/>
<path d="M31.4052 92.6504C31.4052 88.3773 31.442 81.8273 31.3996 80.7654C31.3628 79.8342 31.2543 78.6085 30.566 77.7748C29.8791 76.9466 29.1445 76.1591 28.366 75.4164C23.0904 70.9144 11.8334 61.2201 9.32513 58.0934C10.7223 56.3598 12.2743 54.5625 13.8646 52.9108C13.8962 52.8792 13.9381 52.86 13.9827 52.8564C14.0272 52.8529 14.0716 52.8653 14.1078 52.8914C17.4004 55.3796 28.025 63.7444 30.5879 65.3085C31.4641 65.8433 34.4876 66.9484 35.2403 67.1529C35.4758 67.2167 35.7663 67.2955 36.0635 67.3765L37.5174 67.9439C38.4646 69.6002 41.1725 71.271 43.9638 71.2951C47.3047 71.324 49.6186 69.2768 50.5357 68.0431C50.5357 68.0431 50.562 68.0075 50.5986 67.9593L50.7158 67.7101C51.239 67.5642 52.1675 67.3121 52.7542 67.1529C53.5069 66.9484 56.5304 65.8433 57.4066 65.3085C59.9695 63.7442 70.5941 55.3796 73.8866 52.8914C73.9229 52.8653 73.9673 52.8529 74.0119 52.8564C74.0565 52.86 74.0984 52.8792 74.1301 52.9108C75.7202 54.5625 77.2724 56.3598 78.6695 58.0934C76.1613 61.2201 64.9037 70.9144 59.6287 75.4164C58.8501 76.1591 58.1155 76.9466 57.4285 77.7748C56.7402 78.6085 56.6317 79.8342 56.5949 80.7654C56.5525 81.8273 56.5893 88.3773 56.5893 92.6504H31.4052Z" fill="white"/>
<path d="M83.8697 53.7454C83.235 54.1374 82.6015 54.5367 81.9315 54.8669C81.6448 55.0082 81.3498 55.1321 81.0481 55.2377C80.7192 55.3524 80.3751 55.4164 80.0462 55.5265C79.664 55.6553 79.3344 56.0062 79.0362 56.2643C78.7282 56.5127 78.4371 56.7815 78.165 57.0689C77.7903 57.494 78.4129 58.121 78.7896 57.6935C79.0498 57.4186 79.3278 57.1611 79.6218 56.9227C79.723 56.8345 79.8252 56.7475 79.9284 56.6618C79.9644 56.632 80.0004 56.6024 80.0366 56.5731C80.0488 56.5631 80.1839 56.4566 80.1121 56.512C80.1715 56.4665 80.2365 56.4271 80.2961 56.3811C80.3755 56.3191 80.3479 56.3995 80.2761 56.38C80.3199 56.3922 80.4318 56.3416 80.4785 56.3296C81.8809 55.9738 83.0953 55.2622 84.3153 54.5076C84.7982 54.2093 84.355 53.445 83.8696 53.7448L83.8697 53.7454Z" fill="#211715"/>
<path d="M52.453 53.8643C52.4285 53.8848 52.4039 53.9063 52.3794 53.929C52.3794 53.929 53.0419 47.3704 43.9635 47.3704C34.885 47.3704 35.6695 53.929 35.6695 53.929C35.5428 53.8119 35.3941 53.721 35.232 53.6617C35.0699 53.6023 34.8977 53.5757 34.7252 53.5832C34.506 53.5761 34.289 53.6286 34.0972 53.7352C33.9055 53.8417 33.7462 53.9983 33.6365 54.1882C33.2666 54.8297 33.2822 56.012 33.5305 56.7435C33.7064 57.2616 33.9944 58.054 34.689 58.6223C34.8532 58.7604 35.0467 58.8593 35.2548 58.9114C35.4629 58.9635 35.6801 58.9675 35.89 58.923C36.2691 60.2246 36.9107 61.4347 37.7751 62.479C38.7102 63.5981 39.7019 64.372 40.845 64.7621C40.7459 65.2911 40.6082 65.8121 40.4327 66.3209C40.075 67.0787 38.9768 67.6868 37.5099 67.9306C38.4501 69.5908 41.165 71.2709 43.9638 71.295C47.3048 71.3239 49.6187 69.2767 50.5357 68.0429C50.5357 68.0429 50.5709 67.9954 50.6187 67.9325C49.1465 67.6899 48.0422 67.0806 47.6819 66.3207C47.5604 66.0631 47.4296 65.3821 47.2844 64.742C49.5629 64.0243 51.4487 60.8111 51.7618 59.9612C51.9116 59.6243 52.0392 59.278 52.1438 58.9245L52.2502 58.9429C52.4473 58.9691 52.6478 58.9541 52.8388 58.899C53.0299 58.8438 53.2075 58.7497 53.3603 58.6225C54.0549 58.0542 54.3429 57.2617 54.5188 56.7437C54.7671 56.0121 54.7827 54.8297 54.4128 54.1884C54.303 53.9985 54.1438 53.8419 53.9521 53.7354C53.7603 53.6288 53.5433 53.5763 53.3241 53.5834C53.0096 53.5705 52.7007 53.67 52.453 53.8643Z" fill="white"/>
<path d="M42.7329 40.6835C43.154 40.6357 43.5775 40.6119 44.0013 40.6123C46.1622 40.5846 48.2727 41.2649 50.0106 42.5494C51.9351 43.9387 53.9269 46.3936 54.0938 50.3459C54.1336 51.4573 53.9994 52.5681 53.6961 53.6381C53.5748 53.6053 53.4501 53.5868 53.3245 53.5829C53.1521 53.5753 52.9799 53.602 52.8178 53.6613C52.6557 53.7207 52.507 53.8116 52.3803 53.9287L51.0552 52.8786C50.6273 51.802 49.6611 50.6124 48.6535 49.7454C48.2019 49.3406 47.6848 49.0154 47.1244 48.7836C47.1244 48.7836 46.2856 48.6331 45.4828 48.5718L45.4644 48.5797C44.3447 49.0516 42.7659 50.0422 41.8799 50.5345C41.8296 50.5593 41.7734 50.5696 41.7176 50.5643C41.6618 50.559 41.6085 50.5383 41.5637 50.5046C41.519 50.4709 41.4844 50.4254 41.4639 50.3732C41.4434 50.321 41.4378 50.2642 41.4476 50.209C41.4708 50.0141 41.4579 49.8167 41.4095 49.6265C41.3505 49.3834 41.1637 49.2802 41.0181 49.3565C39.7768 50.0075 38.008 51.6907 37.0061 52.8074L35.6708 53.9287C35.544 53.8116 35.3953 53.7207 35.2332 53.6613C35.0711 53.602 34.8989 53.5753 34.7265 53.5829C34.5884 53.5866 34.4515 53.6085 34.3192 53.6481C34.0163 52.5741 33.8783 51.4604 33.9099 50.345C33.9519 48.8099 34.3465 47.3051 35.0632 45.947C35.7799 44.5889 36.7995 43.4138 38.043 42.5128C39.4156 41.4964 41.0347 40.8649 42.7329 40.6835Z" fill="#85807F"/>
<path d="M35.9822 53.6167C35.707 53.3711 35.3651 53.2128 34.9998 53.1616C34.6345 53.1104 34.2623 53.1688 33.9302 53.3293C33.6973 53.4549 33.495 53.6304 33.3379 53.8434C33.1808 54.0563 33.0727 54.3014 33.0214 54.561C32.7152 55.7756 33.0268 57.1725 33.725 58.2018C34.2372 58.9563 34.9696 59.4961 35.9169 59.3686C36.0294 59.3368 36.125 59.262 36.1827 59.1603C36.2405 59.0586 36.2558 58.9382 36.2253 58.8253C36.1916 58.714 36.1164 58.62 36.0153 58.5626C35.9142 58.5052 35.7949 58.4888 35.682 58.5169C35.0392 58.6034 34.541 57.9003 34.2817 57.4126C34.0153 56.9279 33.8524 56.3932 33.8032 55.8423C33.7692 55.3531 33.8049 54.6712 34.076 54.3184C34.0449 54.3589 34.1358 54.2542 34.1461 54.2435C34.1713 54.2124 34.2026 54.1867 34.2381 54.1681C34.3352 54.1054 34.4439 54.0629 34.5578 54.0429C34.6974 54.0119 34.8424 54.0136 34.9812 54.0481C35.1201 54.0825 35.249 54.1488 35.3579 54.2415C35.7792 54.6212 36.4058 53.9984 35.9826 53.6169L35.9822 53.6167Z" fill="#211715"/>
<path d="M52.6922 54.242C52.8777 54.0867 53.1162 54.0095 53.3575 54.0266C53.5989 54.0438 53.8241 54.154 53.9857 54.334C53.9226 54.2565 54.0062 54.3692 54.0165 54.3861C54.0413 54.4256 54.064 54.4664 54.0844 54.5083C54.1395 54.6407 54.1798 54.7789 54.2044 54.9202C54.2596 55.2244 54.2737 55.5346 54.2463 55.8426C54.1983 56.3827 54.0406 56.9073 53.7829 57.3844C53.5244 57.8813 53.0214 58.6053 52.3677 58.5173C52.2549 58.4902 52.136 58.5069 52.0351 58.5642C51.9342 58.6215 51.8589 58.715 51.8244 58.8258C51.7941 58.9387 51.8095 59.059 51.8672 59.1607C51.925 59.2624 52.0204 59.3372 52.1329 59.3691C53.6701 59.5759 54.5644 58.078 54.9624 56.8071C55.1532 56.1601 55.1932 55.4779 55.0793 54.8131C55.0497 54.5421 54.9653 54.2799 54.8311 54.0426C54.6969 53.8053 54.5158 53.5978 54.2988 53.4328C53.9581 53.2149 53.5552 53.1149 53.1521 53.1481C52.749 53.1814 52.368 53.346 52.0675 53.6168C51.6443 53.9982 52.27 54.6213 52.6922 54.2415V54.242Z" fill="#211715"/>
<path d="M51.8755 58.1941C51.7367 58.7837 51.5467 59.3602 51.3076 59.9168C51.3076 59.9168 51.3444 59.8362 51.3063 59.9185C51.2896 59.9542 51.2735 59.9902 51.2566 60.0259C51.2174 60.1088 51.176 60.1916 51.1333 60.2718C51.0279 60.4733 50.9143 60.6708 50.796 60.865C50.2049 61.8705 49.4489 62.7695 48.5596 63.5243C48.0789 63.9365 47.5097 64.2324 46.8963 64.3892C46.3427 64.5181 46.577 65.3692 47.1311 65.241C48.4105 64.9452 49.4744 64.0079 50.3074 63.0355C51.0183 62.2332 51.6115 61.3338 52.0691 60.3644C52.0954 60.3051 52.1208 60.2456 52.1453 60.1857C52.1569 60.1575 52.2097 60.0342 52.1591 60.1505C52.2292 59.9893 52.2979 59.8279 52.3595 59.6632C52.5141 59.262 52.6372 58.8493 52.7276 58.4289C52.7559 58.316 52.7396 58.1967 52.6822 58.0955C52.6247 57.9943 52.5305 57.9192 52.4192 57.8856C52.3063 57.8557 52.1861 57.8712 52.0845 57.9289C51.9829 57.9865 51.908 58.0818 51.8759 58.1941H51.8755Z" fill="#211715"/>
<path d="M35.2979 58.399C35.5757 59.6348 36.0749 60.81 36.7713 61.8679C37.5281 63.0073 38.523 64.0743 39.7277 64.7449C40.3442 65.0896 41.018 65.3199 41.7166 65.4248C41.8294 65.4521 41.9484 65.4354 42.0494 65.3781C42.1504 65.3207 42.2257 65.2271 42.26 65.1161C42.2902 65.0032 42.2748 64.8829 42.217 64.7813C42.1593 64.6796 42.0639 64.6048 41.9514 64.5729C39.4853 64.2077 37.6431 62.0773 36.7018 59.887C36.4656 59.3307 36.2808 58.7541 36.1497 58.1642C36.024 57.6101 35.1721 57.8445 35.2978 58.399H35.2979Z" fill="#211715"/>
<path d="M49.797 41.8679C48.3054 40.9168 46.6037 40.3453 44.8405 40.2031C43.0772 40.0609 41.3059 40.3523 39.6812 41.052C38.3505 41.6493 37.1582 42.5161 36.1797 43.5977C35.2012 44.6793 34.4576 45.9521 33.9961 47.3357C33.3497 49.3721 33.2997 51.551 33.8522 53.6149C33.9932 54.1653 34.846 53.932 34.7041 53.38C34.2462 51.6643 34.2377 49.8596 34.6794 48.1396C35.0312 46.8004 35.6762 45.5562 36.5678 44.4968C37.499 43.3625 38.6818 42.4609 40.0224 41.8637C41.3629 41.2665 42.8243 40.9901 44.2903 41.0564C46.0911 41.0985 47.8442 41.6437 49.3513 42.6301C49.8298 42.9406 50.2728 42.1761 49.7972 41.8673L49.797 41.8679Z" fill="#211715"/>
<path d="M54.1557 53.6147C54.3776 52.7656 54.5071 51.895 54.5422 51.018C54.5596 50.1531 54.4806 49.2889 54.3066 48.4415C54.0254 47.025 53.443 45.6855 52.5989 44.5136C52.1831 43.9407 51.7099 43.4117 51.1866 42.935C50.7667 42.5535 50.14 43.1763 50.562 43.5596C52.5759 45.3887 53.6291 47.958 53.661 50.667C53.6574 51.5829 53.5376 52.4946 53.3043 53.3803C53.1692 53.9324 54.0208 54.1679 54.1562 53.6151L54.1557 53.6147Z" fill="#211715"/>
<path d="M46.9008 49.1655C47.7169 49.5396 48.4497 50.0735 49.0559 50.7357C49.717 51.384 50.2504 52.1509 50.6281 52.9964C50.6623 53.1074 50.7375 53.2011 50.8385 53.2585C50.9395 53.3158 51.0585 53.3325 51.1714 53.305C51.2839 53.2732 51.3795 53.1983 51.4372 53.0966C51.495 52.9949 51.5104 52.8745 51.48 52.7616C51.0636 51.794 50.4701 50.9128 49.73 50.1633C49.0621 49.4222 48.2515 48.8233 47.3467 48.4027C47.2448 48.3472 47.1255 48.3327 47.0132 48.3621C46.9009 48.3916 46.804 48.4627 46.7424 48.5611C46.6841 48.6625 46.668 48.7827 46.6977 48.8958C46.7274 49.0089 46.8003 49.1058 46.9008 49.1655Z" fill="#211715"/>
<path d="M37.3175 53.1206C38.3127 52.0151 39.4138 50.9306 40.6504 50.096C40.781 50.0078 40.9139 49.923 41.0503 49.8438C41.0839 49.8284 41.116 49.8099 41.1462 49.7886C41.183 49.7546 41.1787 49.7789 41.1752 49.766C41.1126 49.7589 41.0505 49.7472 40.9895 49.731C40.9711 49.7452 40.9975 49.7559 40.9923 49.7862C40.9953 49.8619 41.0033 49.9373 41.0164 50.0119C41.0164 50.0982 41.0004 50.1847 41.0039 50.2708C41.0083 50.3945 41.042 50.5153 41.1022 50.6234C41.1624 50.7315 41.2474 50.8238 41.3503 50.8927C41.7222 51.1337 42.073 50.9344 42.4075 50.7421C42.7187 50.5632 43.0277 50.3807 43.338 50.2005C44.0946 49.7393 44.8789 49.3252 45.6865 48.9607C45.7871 48.901 45.8602 48.8042 45.8899 48.691C45.9195 48.5779 45.9034 48.4576 45.845 48.3563C45.7838 48.2574 45.6869 48.1859 45.5744 48.1564C45.4619 48.1269 45.3424 48.1417 45.2406 48.1978C44.5191 48.521 43.8177 48.8871 43.14 49.2941C42.8157 49.4811 42.4931 49.671 42.1696 49.8591C42.0286 49.941 41.8875 50.0221 41.7463 50.1026C41.7155 50.1173 41.6856 50.134 41.6569 50.1525C41.6591 50.1046 41.8394 50.162 41.8464 50.1631C41.8674 50.1666 41.8628 50.2241 41.8893 50.2084C41.9077 50.1972 41.8994 50.0649 41.8998 50.0455C41.907 49.6361 41.805 49.1583 41.408 48.9597C41.0293 48.7713 40.6701 49.03 40.3579 49.2305C39.701 49.6664 39.0802 50.1545 38.5018 50.6902C37.8678 51.2593 37.2643 51.8613 36.6936 52.4938C36.3141 52.9152 36.9369 53.5428 37.3182 53.1184L37.3175 53.1206Z" fill="#211715"/>
<path d="M50.2172 67.7362C50.189 67.7738 50.1607 67.8115 50.1325 67.8491C50.0589 67.9474 50.189 67.7794 50.1095 67.8788C50.0679 67.9307 50.026 67.9824 49.9831 68.0334C49.8695 68.1677 49.7513 68.298 49.6286 68.4243C49.3685 68.6923 49.0909 68.9428 48.7975 69.174C48.1089 69.7163 47.3358 70.1415 46.509 70.4326C45.4691 70.7835 44.3661 70.9083 43.274 70.7987C42.1819 70.689 41.1258 70.3474 40.1764 69.7968C39.2844 69.2927 38.421 68.619 37.8988 67.7209C37.6129 67.2297 36.8497 67.6739 37.1361 68.1668C37.6617 69.07 38.4844 69.7835 39.3591 70.3373C40.3927 70.995 41.5495 71.4351 42.759 71.6307C44.9852 71.966 47.2535 71.4048 49.0666 70.0703C49.7945 69.539 50.4395 68.9027 50.9806 68.1821C51.039 68.0807 51.0551 67.9605 51.0255 67.8473C50.9958 67.7342 50.9227 67.6373 50.8221 67.5777C50.7203 67.5214 50.6007 67.5065 50.4882 67.536C50.3757 67.5655 50.2788 67.6371 50.2177 67.7362H50.2172Z" fill="#211715"/>
<path d="M50.6649 68.1827C51.738 67.8812 52.822 67.6214 53.8741 67.2513C55.005 66.8711 56.1135 66.4272 57.1942 65.9216C57.7621 65.6232 58.3051 65.2797 58.8181 64.8943C59.5689 64.3665 60.3088 63.8223 61.0449 63.2748C62.9535 61.8565 64.841 60.4099 66.7257 58.9599C68.5539 57.5535 70.3717 56.1442 72.1732 54.756C72.5235 54.4861 72.874 54.2165 73.2248 53.9474C73.3735 53.8335 73.5223 53.7198 73.6712 53.6062C73.8093 53.5158 73.9408 53.4159 74.0649 53.3071C74.0722 53.2995 74.1041 53.2843 74.11 53.2729L73.8786 53.2861L73.939 53.3491C74.013 53.4392 74.0935 53.5237 74.1799 53.6019C74.3507 53.7825 74.5205 53.9639 74.6893 54.1461C75.0083 54.4906 75.3239 54.8383 75.6362 55.1892C76.2668 55.8974 76.885 56.6164 77.4907 57.3463C77.7823 57.6974 78.0713 58.0507 78.3577 58.406V57.7803C77.7938 58.4583 77.1939 59.1055 76.5604 59.7191C75.6575 60.6221 74.7292 61.4996 73.7936 62.3692C71.4884 64.5106 69.1336 66.5987 66.7666 68.6717C64.5591 70.6056 62.3389 72.5251 60.106 74.4301C59.529 74.914 58.9768 75.4266 58.4515 75.9661C58.0908 76.3434 57.7402 76.7299 57.3997 77.1255C57.0825 77.4658 56.819 77.8523 56.6181 78.2719C56.1212 79.4166 56.144 80.6991 56.137 81.9252C56.1186 85.1044 56.1433 88.2842 56.1472 91.4636C56.1472 91.8591 56.1472 92.2546 56.1472 92.65C56.1472 93.2185 57.0305 93.2194 57.0305 92.65C57.0305 89.377 57.0105 86.1041 57.0166 82.831C57.0184 81.8284 56.9718 80.7941 57.1111 79.7985C57.1601 79.3698 57.2754 78.9513 57.4529 78.5581C57.677 78.1556 57.9547 77.7854 58.2783 77.4575C58.8743 76.7611 59.5187 76.1074 60.2064 75.5014C62.3497 73.671 64.484 71.8302 66.6092 69.9791C68.9918 67.8995 71.3621 65.8061 73.69 63.6666C75.3883 62.1053 77.1259 60.5417 78.6472 58.8031C78.7611 58.6728 78.873 58.5409 78.9814 58.4062C79.0603 58.3211 79.1041 58.2093 79.1041 58.0933C79.1041 57.9773 79.0603 57.8655 78.9814 57.7804C77.7863 56.299 76.5483 54.8515 75.2532 53.4556C75.0937 53.2838 74.9338 53.1134 74.7734 52.9442C74.6078 52.7703 74.4394 52.5301 74.2046 52.4515C73.893 52.347 73.6731 52.5008 73.4404 52.6775C73.1384 52.9071 72.837 53.1374 72.5363 53.3686C70.7946 54.7056 69.0663 56.0479 67.3327 57.3846C65.3773 58.8924 63.4195 60.3972 61.4435 61.8791C60.085 62.8985 58.7314 63.9541 57.2915 64.8583C56.4313 65.3984 55.4546 65.7277 54.5069 66.0823C53.4487 66.4781 52.386 66.7921 51.2967 67.0899C51.0074 67.169 50.7182 67.2488 50.4292 67.3291C49.8828 67.4826 50.1148 68.3353 50.664 68.181L50.6649 68.1827Z" fill="#211715"/>
<path d="M37.6352 68.3555C38.5725 68.195 39.5372 67.877 40.2649 67.2421C40.5526 66.995 40.7731 66.6791 40.9057 66.3237C41.0587 65.8508 41.1807 65.3684 41.271 64.8796C41.2995 64.7668 41.2833 64.6473 41.2259 64.546C41.1684 64.4448 41.0741 64.3697 40.9626 64.3363C40.8497 64.3065 40.7295 64.3221 40.628 64.3797C40.5264 64.4374 40.4515 64.5325 40.4193 64.6448C40.3166 65.1036 40.2264 65.5716 40.0781 66.0184C40.0667 66.0528 40.0538 66.0867 40.0413 66.1209C40.0083 66.2153 40.084 66.0458 40.0363 66.1283C39.9956 66.1984 39.9561 66.2667 39.9119 66.3348C39.8622 66.4117 39.9607 66.2833 39.8935 66.3594C39.8688 66.3872 39.8455 66.4158 39.8199 66.443C39.7628 66.5043 39.7026 66.5625 39.6393 66.6175C39.6287 66.6267 39.5422 66.6988 39.5747 66.6727C39.6029 66.6502 39.4995 66.7279 39.4853 66.7376C39.4135 66.7877 39.3399 66.8349 39.2645 66.8793C39.1785 66.9303 39.0904 66.9776 39.0009 67.022C38.915 67.0645 38.8217 67.1072 38.7727 67.1271C38.3299 67.3019 37.8694 67.4281 37.3993 67.5034C37.2868 67.5353 37.1915 67.6102 37.1337 67.7119C37.076 67.8135 37.0606 67.9338 37.0908 68.0467C37.1242 68.1582 37.1993 68.2525 37.3005 68.31C37.4017 68.3675 37.5212 68.3838 37.6341 68.3553L37.6352 68.3555Z" fill="#211715"/>
<path d="M46.8585 64.8591C46.9476 65.3533 47.065 65.842 47.21 66.3228C47.3405 66.6794 47.5614 66.9961 47.851 67.2418C48.5792 67.8762 49.5441 68.1948 50.4814 68.3552C50.5943 68.3829 50.7134 68.3664 50.8144 68.309C50.9155 68.2516 50.9907 68.1577 51.0247 68.0466C51.0548 67.9337 51.0394 67.8135 50.9817 67.7118C50.924 67.6102 50.8287 67.5353 50.7162 67.5033C50.246 67.4283 49.7854 67.3021 49.3426 67.127C49.2911 67.106 49.2186 67.0731 49.1356 67.0324C49.0388 66.985 48.9438 66.934 48.8507 66.8793C48.7754 66.8347 48.7016 66.7873 48.6298 66.7376C48.5954 66.7136 48.561 66.6892 48.5279 66.664C48.5941 66.7157 48.4878 66.6284 48.4754 66.6178C48.4121 66.5629 48.3518 66.5046 48.2947 66.4433C48.2695 66.4161 48.2459 66.3881 48.2211 66.3597C48.1442 66.2732 48.2643 66.4302 48.2027 66.3351C48.1616 66.272 48.1239 66.2085 48.0856 66.1437C48.0245 66.0401 48.1007 66.2057 48.0733 66.1207C48.0623 66.0861 48.0494 66.052 48.0383 66.0174C47.8955 65.5634 47.8149 65.0884 47.7102 64.6248C47.6791 64.5119 47.6043 64.4159 47.5025 64.3581C47.4006 64.3003 47.2799 64.2853 47.1669 64.3164C47.054 64.3475 46.958 64.4223 46.9002 64.5242C46.8424 64.626 46.8274 64.7467 46.8585 64.8597V64.8591Z" fill="#211715"/>
<path d="M3.67897 54.5083C4.89913 55.2619 6.11339 55.9739 7.51574 56.3302C7.56322 56.3422 7.67512 56.3928 7.7191 56.3807C7.64714 56.4007 7.61972 56.3197 7.69886 56.3818C7.75775 56.428 7.82271 56.4672 7.88289 56.5126C7.81038 56.4574 7.94602 56.5638 7.95835 56.5737C7.99515 56.603 8.03122 56.6326 8.06656 56.6624C8.16324 56.7427 8.25894 56.824 8.35365 56.9065C8.6546 57.1499 8.93907 57.413 9.20519 57.6941C9.58191 58.1215 10.2047 57.4948 9.8298 57.0695C9.55771 56.7822 9.26671 56.5134 8.95876 56.2649C8.66044 56.0073 8.33083 55.655 7.94859 55.5271C7.61991 55.4167 7.27558 55.353 6.9467 55.2384C6.645 55.1328 6.34999 55.0089 6.06333 54.8675C5.39326 54.5379 4.75981 54.138 4.12526 53.746C3.64014 53.4464 3.19606 54.2103 3.67934 54.5088L3.67897 54.5083Z" fill="#211715"/>
<path d="M36.1813 66.9501C35.1397 66.6647 34.1132 66.3269 33.1057 65.9379C32.2485 65.6091 31.3839 65.2958 30.6047 64.7969C29.2049 63.8996 27.8793 62.8769 26.5502 61.8798C24.6517 60.4555 22.7693 59.0097 20.8894 57.5608C19.1891 56.2501 17.4988 54.9385 15.7929 53.6265C15.479 53.3849 15.1646 53.1439 14.8499 52.9034C14.715 52.8009 14.5803 52.6985 14.446 52.5963C14.3176 52.4814 14.1498 52.4206 13.9776 52.4268C13.8054 52.4329 13.6423 52.5055 13.5225 52.6292C12.8568 53.2592 12.2547 53.9777 11.6468 54.6626C11.0389 55.3476 10.4394 56.0475 9.85265 56.7542C9.57046 57.0943 9.29067 57.4364 9.01326 57.7804C8.93436 57.8655 8.89052 57.9772 8.89052 58.0932C8.89052 58.2093 8.93436 58.321 9.01326 58.4061C9.57709 59.0841 10.177 59.7312 10.8104 60.3447C11.7002 61.2347 12.6148 62.0999 13.5365 62.9566C15.8237 65.0829 18.1604 67.1559 20.5092 69.2138C22.7065 71.139 24.9161 73.0499 27.1382 74.9465C27.6824 75.4119 28.2201 75.8724 28.7209 76.3857C29.08 76.7537 29.429 77.1309 29.768 77.5173C30.0799 77.8362 30.3454 78.1974 30.5568 78.5902C31.0443 79.6208 30.969 80.8704 30.9749 81.987C30.9917 85.1459 30.9683 88.3053 30.9644 91.4648C30.9644 91.8604 30.9644 92.2558 30.9644 92.6513C30.9644 93.2198 31.8478 93.2207 31.8478 92.6513C31.8478 89.3616 31.8684 86.0722 31.8618 82.7825C31.8598 81.7238 31.892 80.6498 31.7407 79.5987C31.6779 79.1308 31.5511 78.6738 31.3636 78.2405C31.1513 77.8113 30.8758 77.4162 30.5463 77.0686C29.9331 76.3266 29.2647 75.6322 28.5466 74.9912C26.3978 73.1569 24.258 71.3122 22.1273 69.4571C19.7267 67.3635 17.3385 65.2546 14.9926 63.0997C13.2726 61.5198 11.5117 59.9371 9.97154 58.1777C9.8578 58.0474 9.74591 57.9155 9.63751 57.7806V58.4063C10.768 57.0045 11.938 55.6332 13.1568 54.308C13.3152 54.1355 13.4747 53.9637 13.6353 53.7927C13.8078 53.6355 13.9686 53.466 14.1167 53.2857C14.1136 53.2796 13.8906 53.257 13.8959 53.2811C13.8992 53.2941 13.9314 53.305 13.9414 53.3155C13.9671 53.338 13.9944 53.3587 14.0231 53.3773C14.093 53.4303 14.1629 53.4834 14.2327 53.5365C14.5294 53.7625 14.8255 53.9891 15.121 54.2163C16.788 55.497 18.4033 56.7511 20.0793 58.0443C21.9414 59.4805 23.8098 60.9087 25.6847 62.3288C27.0708 63.3727 28.4551 64.4298 29.9002 65.3919C30.5889 65.8277 31.32 66.1924 32.0823 66.4807C33.0422 66.8712 34.0187 67.2536 35.0136 67.5481C35.3222 67.6401 35.6351 67.7185 35.9457 67.803C36.4949 67.9524 36.7293 67.1005 36.1805 66.9512L36.1813 66.9501Z" fill="#211715"/>
<path d="M43.8816 57.1278C43.9571 57.4003 44.0175 57.6768 44.0627 57.9559L44.0469 57.8385C44.0522 57.8764 44.0533 57.9147 44.05 57.9528L44.0658 57.8354C44.0632 57.8529 44.059 57.8702 44.0531 57.8869L44.0977 57.7813C44.0925 57.7929 44.0864 57.8039 44.0793 57.8144L44.1483 57.725C44.1403 57.7349 44.1313 57.7439 44.1212 57.7517L44.2105 57.6826C44.1895 57.6958 44.1676 57.7074 44.145 57.7174L44.2504 57.6729C44.215 57.6881 44.178 57.6989 44.14 57.7051L44.2574 57.6893C44.2229 57.6934 44.1881 57.6934 44.1536 57.6893L44.271 57.7051C44.232 57.6996 44.1935 57.6902 44.1543 57.6849C44.0974 57.6666 44.0366 57.6638 43.9782 57.6769C43.9198 57.6796 43.8632 57.6977 43.8141 57.7294C43.764 57.7587 43.7201 57.7975 43.685 57.8437C43.65 57.8899 43.6243 57.9426 43.6096 57.9987C43.5949 58.0549 43.5914 58.1133 43.5993 58.1708C43.6072 58.2283 43.6263 58.2837 43.6556 58.3338C43.6836 58.3836 43.7215 58.4272 43.7668 58.462C43.8122 58.4968 43.8641 58.522 43.9195 58.5362C44.0101 58.5483 44.098 58.5714 44.1902 58.5754C44.3296 58.5763 44.4671 58.5434 44.5911 58.4797C44.6697 58.4439 44.7394 58.3911 44.795 58.325C44.8507 58.2589 44.8909 58.1812 44.9128 58.0976C44.9412 57.9619 44.9399 57.8217 44.9089 57.6865C44.8638 57.4197 44.802 57.1552 44.7333 56.8933C44.7179 56.8374 44.6916 56.785 44.656 56.7393C44.6203 56.6935 44.576 56.6552 44.5256 56.6266C44.4751 56.5979 44.4195 56.5795 44.362 56.5723C44.3044 56.5652 44.246 56.5694 44.19 56.5849C44.0783 56.6179 43.9837 56.6929 43.9262 56.7943C43.8686 56.8956 43.8527 57.0153 43.8816 57.1281V57.1278Z" fill="#211715"/>
<path d="M39.4998 54.7766C39.3614 55.2261 39.4516 56.2604 40.3033 56.3484C41.4293 56.3418 41.4891 55.0913 41.1101 54.5033C40.8006 54.022 39.8874 53.8218 39.4998 54.7766Z" fill="#211715"/>
<path d="M48.5498 54.7766C48.6882 55.2261 48.598 56.2604 47.7463 56.3484C46.6204 56.3416 46.5606 55.0913 46.9395 54.5033C47.2498 54.022 48.1621 53.8218 48.5498 54.7766Z" fill="#211715"/>
<path d="M43.4765 61.3214C43.2918 61.1253 43.1318 60.9074 43 60.6725C42.9437 60.5724 42.8972 60.467 42.8612 60.3578C42.8393 60.2916 42.8218 60.224 42.809 60.1554C42.7878 60.0313 42.8441 59.9953 42.6698 60.1618C42.5042 60.3201 42.5119 60.2837 42.6244 60.2837H42.9862H43.6005H44.9449H45.5351H45.6418C45.7633 60.2837 45.7822 60.3251 45.6115 60.158C45.4598 60.0096 45.4935 59.9752 45.4626 60.1084C45.4443 60.1865 45.4243 60.2639 45.4026 60.3407C45.2735 60.8553 45.0021 61.3232 44.6195 61.6908C44.5378 61.7738 44.4922 61.8858 44.4927 62.0024C44.4931 62.1189 44.5396 62.2305 44.622 62.3129C44.7044 62.3953 44.816 62.4418 44.9326 62.4422C45.0491 62.4427 45.1611 62.3971 45.2441 62.3154C45.7282 61.8471 46.0748 61.2552 46.2462 60.6039C46.3557 60.2308 46.481 59.7555 46.0806 59.503C45.8492 59.3572 45.5408 59.4001 45.2778 59.4003L43.6244 59.4014H42.8725C42.5883 59.4014 42.2948 59.3756 42.0811 59.6058C41.7607 59.9518 41.9635 60.524 42.1284 60.898C42.3107 61.2847 42.555 61.6391 42.8517 61.947C43.237 62.3666 43.8605 61.7405 43.4763 61.3223L43.4765 61.3214Z" fill="#211715"/>
</svg>
