<svg width="64" height="64" viewBox="0 0 64 64" fill="none" xmlns="http://www.w3.org/2000/svg">
<g opacity="0.13">
<path d="M64 32C64 49.6729 49.6729 64 32 64C14.3289 64 0 49.6729 0 32C0 14.3289 14.3289 0 32 0C49.6729 0 64 14.3289 64 32Z" fill="#FFCC4D"/>
<path d="M20.4444 36.4444C22.899 36.4444 24.8889 33.6587 24.8889 30.2222C24.8889 26.7858 22.899 24 20.4444 24C17.9898 24 16 26.7858 16 30.2222C16 33.6587 17.9898 36.4444 20.4444 36.4444Z" fill="#664500"/>
<path d="M43.5556 36.4444C46.0102 36.4444 48 33.6587 48 30.2222C48 26.7858 46.0102 24 43.5556 24C41.101 24 39.1111 26.7858 39.1111 30.2222C39.1111 33.6587 41.101 36.4444 43.5556 36.4444Z" fill="#664500"/>
<path d="M10.6649 24C10.3349 23.9997 10.0115 23.9075 9.7309 23.7338C9.45031 23.5601 9.22361 23.3117 9.07617 23.0165C8.92874 22.7212 8.86639 22.3908 8.89611 22.0621C8.92583 21.7335 9.04644 21.4196 9.24444 21.1556C15.0436 13.4222 22.784 13.3333 23.1111 13.3333C23.3446 13.3329 23.5758 13.3784 23.7917 13.4673C24.0076 13.5562 24.2038 13.6868 24.3692 13.8515C24.5346 14.0163 24.666 14.212 24.7558 14.4275C24.8455 14.643 24.892 14.8741 24.8924 15.1076C24.8929 15.341 24.8474 15.5723 24.7585 15.7882C24.6696 16.004 24.539 16.2003 24.3743 16.3657C24.2095 16.5311 24.0138 16.6624 23.7983 16.7522C23.5828 16.842 23.3517 16.8884 23.1182 16.8889C22.8427 16.8924 16.7751 17.0418 12.0889 23.2889C11.9233 23.5101 11.7083 23.6896 11.4611 23.8131C11.2139 23.9365 10.9412 24.0006 10.6649 24ZM53.3351 24C53.0588 24.0006 52.7861 23.9365 52.5389 23.8131C52.2917 23.6896 52.0767 23.5101 51.9111 23.2889C47.216 17.0293 41.136 16.8907 40.8782 16.8889C40.4083 16.8837 39.9594 16.693 39.6294 16.3584C39.2994 16.0237 39.115 15.5722 39.1164 15.1022C39.1174 14.6328 39.3045 14.1828 39.6368 13.8512C39.9691 13.5196 40.4194 13.3333 40.8889 13.3333C41.216 13.3333 48.9547 13.4222 54.7556 21.1556C54.9536 21.4196 55.0742 21.7335 55.1039 22.0621C55.1336 22.3908 55.0713 22.7212 54.9238 23.0165C54.7764 23.3117 54.5497 23.5601 54.2691 23.7338C53.9885 23.9075 53.6651 23.9997 53.3351 24ZM41.7511 50.4516C41.7316 50.3733 39.7156 42.6667 32 42.6667C24.2844 42.6667 22.2684 50.3733 22.2489 50.4516C22.2047 50.6357 22.2209 50.8291 22.2952 51.0033C22.3695 51.1775 22.4979 51.3231 22.6613 51.4187C22.8266 51.5149 23.0181 51.5564 23.2084 51.5373C23.3987 51.5181 23.5781 51.4393 23.7209 51.312C23.7369 51.2978 25.5218 49.7778 32 49.7778C38.3822 49.7778 40.208 51.2533 40.2773 51.312C40.4169 51.4443 40.5957 51.5277 40.7867 51.5497C40.9777 51.5718 41.1708 51.5313 41.3368 51.4343C41.5029 51.3374 41.633 51.1892 41.7077 51.012C41.7824 50.8348 41.7977 50.6381 41.7511 50.4516Z" fill="#664500"/>
<path d="M28.4445 55.1111C28.4445 60.0213 24.4658 64 19.5556 64C14.6453 64 10.6667 60.0213 10.6667 55.1111C10.6667 50.2009 17.7778 37.3333 19.5556 37.3333C21.3333 37.3333 28.4445 50.2009 28.4445 55.1111Z" fill="#5DADEC"/>
</g>
</svg>
