<svg width="64" height="64" viewBox="0 0 64 64" fill="none" xmlns="http://www.w3.org/2000/svg">
<g opacity="0.13">
<path d="M64 32C64 49.6729 49.6729 64 32 64C14.3271 64 0 49.6729 0 32C0 14.3271 14.3271 0 32 0C49.6729 0 64 14.3271 64 32Z" fill="#FFCC4D"/>
<path d="M39.1111 48C39.1111 52.912 35.9271 53.3333 32 53.3333C28.0711 53.3333 24.8889 52.912 24.8889 48C24.8889 43.0916 28.0711 37.3333 32 37.3333C35.9271 37.3333 39.1111 43.0916 39.1111 48ZM53.3333 26.6667C53.1073 26.6669 52.8833 26.6234 52.6738 26.5387C43.3778 22.8213 39.568 17.2213 39.4098 16.9849C39.1474 16.5931 39.0514 16.1131 39.1429 15.6505C39.2344 15.1879 39.506 14.7806 39.8978 14.5182C40.2896 14.2558 40.7696 14.1598 41.2322 14.2514C41.6948 14.3429 42.1021 14.6144 42.3644 15.0062C42.3982 15.0542 45.7956 19.9573 53.9929 23.2356C54.3782 23.3878 54.6982 23.6699 54.8977 24.0331C55.0971 24.3962 55.1635 24.8176 55.0853 25.2245C55.0071 25.6314 54.7892 25.9981 54.4693 26.2615C54.1495 26.5248 53.7476 26.6681 53.3333 26.6667ZM10.6667 26.6667C10.2542 26.6653 9.85494 26.5207 9.53726 26.2576C9.21958 25.9945 9.00318 25.6291 8.92507 25.2241C8.84696 24.8191 8.91199 24.3995 9.10904 24.0371C9.30608 23.6747 9.62291 23.392 10.0053 23.2373C18.2044 19.9591 21.6018 15.056 21.6356 15.008C21.8998 14.6184 22.3074 14.3493 22.7694 14.2594C23.2315 14.1694 23.7103 14.266 24.1013 14.528C24.4918 14.7895 24.7627 15.1953 24.8543 15.6562C24.946 16.1172 24.851 16.5957 24.5902 16.9867C24.432 17.2231 20.6222 22.8231 11.328 26.5404C11.1174 26.6236 10.8931 26.6665 10.6667 26.6667Z" fill="#664500"/>
<path d="M42.6667 28.4444H49.7778V62.2222L42.6667 62.1404V28.4444ZM14.2222 62.2222L21.3333 62.1404V28.4444H14.2222V62.2222Z" fill="#5DADEC"/>
<path d="M26.6649 32C26.3982 32 26.1262 31.9396 25.872 31.8133C19.6284 28.6916 13.3031 31.7813 13.2409 31.8133C13.0321 31.9178 12.8047 31.9801 12.5718 31.9967C12.3389 32.0133 12.105 31.9839 11.8834 31.9101C11.6619 31.8363 11.457 31.7196 11.2806 31.5667C11.1042 31.4137 10.9596 31.2275 10.8551 31.0187C10.7506 30.8098 10.6883 30.5825 10.6717 30.3496C10.6551 30.1166 10.6845 29.8827 10.7583 29.6612C10.8321 29.4397 10.9488 29.2348 11.1018 29.0584C11.2547 28.8819 11.4409 28.7374 11.6498 28.6329C11.9733 28.4729 19.6462 24.7271 27.4631 28.6329C27.8211 28.8123 28.1081 29.1074 28.2775 29.4703C28.4469 29.8332 28.4888 30.2426 28.3964 30.6323C28.304 31.022 28.0828 31.3691 27.7685 31.6173C27.4542 31.8655 27.0654 32.0004 26.6649 32ZM51.5538 32C51.2871 32 51.0151 31.9396 50.7609 31.8133C44.5156 28.6916 38.192 31.7813 38.1298 31.8133C37.9209 31.9178 37.6936 31.9801 37.4607 31.9967C37.2278 32.0133 36.9938 31.9839 36.7723 31.9101C36.5508 31.8363 36.3459 31.7196 36.1695 31.5667C35.9931 31.4137 35.8485 31.2275 35.744 31.0187C35.6395 30.8098 35.5772 30.5825 35.5606 30.3496C35.544 30.1166 35.5734 29.8827 35.6472 29.6612C35.721 29.4397 35.8377 29.2348 35.9907 29.0584C36.1436 28.8819 36.3298 28.7374 36.5387 28.6329C36.8622 28.4729 44.5404 24.7289 52.352 28.6329C52.71 28.8123 52.997 29.1074 53.1664 29.4703C53.3358 29.8332 53.3776 30.2426 53.2853 30.6323C53.1929 31.022 52.9716 31.3691 52.6574 31.6173C52.3431 31.8655 51.9543 32.0004 51.5538 32Z" fill="#664500"/>
<path d="M32 64C49.6731 64 64 62.4081 64 60.4444C64 58.4808 49.6731 56.8889 32 56.8889C14.3269 56.8889 0 58.4808 0 60.4444C0 62.4081 14.3269 64 32 64Z" fill="#5DADEC"/>
<path d="M32 51.5556C34.9455 51.5556 37.3333 49.9637 37.3333 48C37.3333 46.0363 34.9455 44.4444 32 44.4444C29.0545 44.4444 26.6667 46.0363 26.6667 48C26.6667 49.9637 29.0545 51.5556 32 51.5556Z" fill="#E75A70"/>
</g>
</svg>
