<svg width="64" height="64" viewBox="0 0 64 64" fill="none" xmlns="http://www.w3.org/2000/svg">
<g opacity="0.13">
<path d="M64 32C64 49.6729 49.6729 64 32 64C14.3289 64 0 49.6729 0 32C0 14.3289 14.3289 0 32 0C49.6729 0 64 14.3289 64 32Z" fill="#FFCC4D"/>
<path d="M30.7769 31.3102C30.6241 31.1872 30.435 31.1181 30.2389 31.1136C30.0428 31.1091 29.8507 31.1695 29.6924 31.2853C29.6711 31.3013 27.4524 32.8889 23.1111 32.8889C18.7716 32.8889 16.5511 31.3013 16.5333 31.2889C16.3759 31.1708 16.1838 31.1082 15.987 31.1111C15.7902 31.1139 15.5999 31.182 15.446 31.3046C15.2921 31.4272 15.1832 31.5975 15.1364 31.7886C15.0896 31.9798 15.1076 32.1811 15.1876 32.3609C15.2942 32.6009 17.8542 38.2222 23.1111 38.2222C28.3698 38.2222 30.928 32.6009 31.0347 32.3609C31.1139 32.1819 31.1316 31.9817 31.0849 31.7916C31.0383 31.6015 30.93 31.4322 30.7769 31.3102ZM48.5547 31.3102C48.402 31.187 48.2128 31.1177 48.0167 31.1132C47.8205 31.1087 47.6284 31.1692 47.4702 31.2853C47.4489 31.3013 45.2284 32.8889 40.8889 32.8889C36.5511 32.8889 34.3289 31.3013 34.3111 31.2889C34.1537 31.1708 33.9615 31.1082 33.7648 31.1111C33.568 31.1139 33.3777 31.182 33.2238 31.3046C33.0699 31.4272 32.961 31.5975 32.9142 31.7886C32.8674 31.9798 32.8854 32.1811 32.9653 32.3609C33.072 32.6009 35.632 38.2222 40.8889 38.2222C46.1476 38.2222 48.7058 32.6009 48.8124 32.3609C48.8917 32.1819 48.9093 31.9817 48.8627 31.7916C48.8161 31.6015 48.7077 31.4322 48.5547 31.3102ZM39.1111 49.7778H24.8889C24.4174 49.7778 23.9652 49.5905 23.6318 49.2571C23.2984 48.9237 23.1111 48.4715 23.1111 48C23.1111 47.5285 23.2984 47.0763 23.6318 46.7429C23.9652 46.4095 24.4174 46.2222 24.8889 46.2222H39.1111C39.5826 46.2222 40.0348 46.4095 40.3682 46.7429C40.7016 47.0763 40.8889 47.5285 40.8889 48C40.8889 48.4715 40.7016 48.9237 40.3682 49.2571C40.0348 49.5905 39.5826 49.7778 39.1111 49.7778ZM10.6667 24.8889C10.4332 24.8894 10.2019 24.8438 9.98607 24.7549C9.7702 24.666 9.57396 24.5355 9.40855 24.3707C9.07448 24.038 8.88628 23.5862 8.88533 23.1147C8.88439 22.6432 9.07079 22.1906 9.40352 21.8565C9.73625 21.5225 10.1881 21.3343 10.6596 21.3333C10.9369 21.3298 17.0044 21.1804 21.6907 14.9333C21.9736 14.5561 22.3947 14.3068 22.8615 14.2401C23.3282 14.1734 23.8024 14.2949 24.1796 14.5778C24.5568 14.8607 24.8061 15.2818 24.8728 15.7486C24.9395 16.2153 24.818 16.6895 24.5351 17.0667C18.7342 24.8 10.9938 24.8889 10.6667 24.8889ZM53.3333 24.8889C53.0062 24.8889 45.2676 24.8 39.4667 17.0667C39.3187 16.8807 39.2095 16.6669 39.1456 16.4379C39.0816 16.209 39.0643 15.9696 39.0945 15.7338C39.1247 15.4981 39.2019 15.2707 39.3215 15.0653C39.441 14.8599 39.6006 14.6806 39.7907 14.5379C39.9808 14.3952 40.1976 14.2921 40.4283 14.2347C40.6589 14.1773 40.8988 14.1667 41.1336 14.2035C41.3684 14.2404 41.5934 14.324 41.7954 14.4493C41.9973 14.5747 42.1721 14.7393 42.3093 14.9333C47.0044 21.1929 53.0844 21.3316 53.3422 21.3333C54.32 21.344 55.1093 22.144 55.104 23.12C55.1035 23.5893 54.9168 24.0392 54.5848 24.3709C54.2527 24.7026 53.8026 24.8889 53.3333 24.8889Z" fill="#664500"/>
</g>
</svg>
