<svg width="64" height="64" viewBox="0 0 64 64" fill="none" xmlns="http://www.w3.org/2000/svg">
<g opacity="0.13">
<path d="M64 32C64 49.6729 49.6729 64 32 64C14.3289 64 0 49.6729 0 32C0 14.3289 14.3289 0 32 0C49.6729 0 64 14.3289 64 32Z" fill="#FFCC4D"/>
<path d="M20.4444 35.5556C22.899 35.5556 24.8889 32.7698 24.8889 29.3333C24.8889 25.8969 22.899 23.1111 20.4444 23.1111C17.9898 23.1111 16 25.8969 16 29.3333C16 32.7698 17.9898 35.5556 20.4444 35.5556Z" fill="#664500"/>
<path d="M43.5556 35.5556C46.0102 35.5556 48 32.7698 48 29.3333C48 25.8969 46.0102 23.1111 43.5556 23.1111C41.101 23.1111 39.1111 25.8969 39.1111 29.3333C39.1111 32.7698 41.101 35.5556 43.5556 35.5556Z" fill="#664500"/>
<path d="M21.3333 49.7778C24.8889 40.8889 44.4444 40.8889 44.4444 44.4444C44.4444 46.2222 30.2222 42.6667 21.3333 49.7778Z" fill="#664500"/>
</g>
</svg>
