<svg width="64" height="64" viewBox="0 0 64 64" fill="none" xmlns="http://www.w3.org/2000/svg">
<g opacity="0.2">
<path d="M64 32C64 49.6729 49.6729 64 32 64C14.3271 64 0 49.6729 0 32C0 14.3271 14.3271 0 32 0C49.6729 0 64 14.3271 64 32Z" fill="#FFCC4D"/>
<path d="M12.4444 40.8889C17.3536 40.8889 21.3333 36.9092 21.3333 32C21.3333 27.0908 17.3536 23.1111 12.4444 23.1111C7.53525 23.1111 3.55556 27.0908 3.55556 32C3.55556 36.9092 7.53525 40.8889 12.4444 40.8889Z" fill="#FF7892"/>
<path d="M51.5556 40.8889C56.4648 40.8889 60.4445 36.9092 60.4445 32C60.4445 27.0908 56.4648 23.1111 51.5556 23.1111C46.6464 23.1111 42.6667 27.0908 42.6667 32C42.6667 36.9092 46.6464 40.8889 51.5556 40.8889Z" fill="#FF7892"/>
<path d="M48.5956 38.4516C48.4424 38.3137 48.2462 38.2332 48.0403 38.2238C47.8345 38.2144 47.6318 38.2767 47.4667 38.4C47.3973 38.4516 40.4942 43.5556 32 43.5556C23.5271 43.5556 16.6009 38.4516 16.5333 38.4C16.3685 38.2763 16.1658 38.2136 15.9599 38.2229C15.754 38.2321 15.5577 38.3126 15.4046 38.4506C15.2515 38.5885 15.1511 38.7754 15.1206 38.9793C15.0901 39.1831 15.1313 39.3912 15.2373 39.568C15.4667 39.9502 20.9564 48.8889 32 48.8889C43.0436 48.8889 48.5351 39.9502 48.7627 39.568C48.8688 39.3914 48.9101 39.1835 48.8796 38.9798C48.8491 38.7761 48.7487 38.5893 48.5956 38.4516ZM14.2204 26.6667C13.9174 26.6664 13.6195 26.5886 13.355 26.4408C13.0905 26.293 12.8682 26.08 12.7091 25.8221C12.5501 25.5642 12.4596 25.2699 12.4462 24.9672C12.4329 24.6645 12.4971 24.3633 12.6329 24.0924C12.7253 23.9076 14.976 19.5556 21.3333 19.5556C27.6924 19.5556 29.9413 23.9093 30.0338 24.0942C30.2449 24.5143 30.2811 25.0009 30.1344 25.4476C29.9876 25.8943 29.6699 26.2646 29.2507 26.4776C28.8316 26.6906 28.3451 26.7289 27.8978 26.584C27.4505 26.4392 27.0788 26.1231 26.864 25.7049C26.7876 25.5627 25.3884 23.1111 21.3333 23.1111C17.2142 23.1111 15.824 25.6587 15.8116 25.6836C15.6642 25.9793 15.4372 26.2281 15.1561 26.4018C14.8749 26.5755 14.5509 26.6672 14.2204 26.6667ZM49.7796 26.6667C49.4489 26.6672 49.1246 26.5754 48.8432 26.4017C48.5619 26.2281 48.3345 25.9794 48.1867 25.6836C48.1422 25.6018 46.7538 23.1111 42.6667 23.1111C38.5796 23.1111 37.1911 25.6018 37.1342 25.7067C36.672 26.5618 35.6071 26.8978 34.7431 26.4533C34.3285 26.2417 34.0142 25.875 33.8684 25.433C33.7226 24.9909 33.7571 24.5092 33.9644 24.0924C34.0569 23.9093 36.3076 19.5556 42.6667 19.5556C49.0258 19.5556 51.2764 23.9093 51.3689 24.0942C51.5043 24.3652 51.5682 24.6663 51.5546 24.9689C51.541 25.2715 51.4502 25.5656 51.291 25.8233C51.1318 26.081 50.9094 26.2937 50.6449 26.4413C50.3803 26.5889 50.0825 26.6665 49.7796 26.6667Z" fill="#664500"/>
</g>
</svg>
