<svg width="64" height="64" viewBox="0 0 64 64" fill="none" xmlns="http://www.w3.org/2000/svg">
<g opacity="0.2">
<path d="M32 64C49.6731 64 64 49.6731 64 32C64 14.3269 49.6731 0 32 0C14.3269 0 0 14.3269 0 32C0 49.6731 14.3269 64 32 64Z" fill="#FFCC4D"/>
<path d="M28.4444 30.1476C27.6995 30.1476 27.0062 29.6765 26.7573 28.9316C26.3964 27.8667 24.9475 24.8142 23.1111 24.8142C21.2231 24.8142 19.7547 28.0622 19.4649 28.9316C19.3933 29.1559 19.2779 29.3637 19.1254 29.5431C18.9728 29.7224 18.7862 29.8697 18.5763 29.9763C18.3663 30.0829 18.1373 30.1468 17.9025 30.1642C17.6677 30.1816 17.4318 30.1521 17.2085 30.0776C16.9852 30.0031 16.7788 29.8849 16.6015 29.73C16.4242 29.5751 16.2795 29.3865 16.1756 29.1752C16.0718 28.9639 16.011 28.7341 15.9967 28.4991C15.9824 28.2641 16.015 28.0286 16.0924 27.8062C16.3147 27.136 18.4107 21.2569 23.1129 21.2569C27.8151 21.2569 29.9093 27.136 30.1333 27.8062C30.2227 28.0737 30.2472 28.3587 30.2047 28.6375C30.1623 28.9163 30.0541 29.1811 29.8891 29.4098C29.724 29.6386 29.507 29.8248 29.2558 29.9531C29.0046 30.0813 28.7265 30.148 28.4444 30.1476ZM46.2222 30.1476C45.8492 30.1476 45.4856 30.0301 45.1831 29.8118C44.8806 29.5935 44.6545 29.2856 44.5369 28.9316C44.176 27.8667 42.7253 24.8142 40.8889 24.8142C39.0009 24.8142 37.5307 28.0622 37.2409 28.9316C37.0871 29.3729 36.7656 29.736 36.3461 29.9421C35.9266 30.1483 35.4428 30.1809 34.9994 30.0329C34.556 29.885 34.1887 29.5684 33.9771 29.1516C33.7654 28.7349 33.7264 28.2515 33.8684 27.8062C34.0907 27.136 36.1867 21.2569 40.8871 21.2569C45.5875 21.2569 47.6835 27.136 47.9058 27.8062C47.995 28.0733 48.0196 28.3578 47.9774 28.6362C47.9352 28.9146 47.8275 29.179 47.6631 29.4077C47.4987 29.6363 47.2823 29.8226 47.0318 29.9512C46.7813 30.0799 46.5038 30.1472 46.2222 30.1476ZM48.5955 36.784C48.4424 36.6462 48.2462 36.5657 48.0403 36.5563C47.8345 36.5469 47.6317 36.6091 47.4667 36.7325C47.3973 36.784 40.4942 41.888 32 41.888C23.5271 41.888 16.6009 36.784 16.5333 36.7325C16.3685 36.6087 16.1658 36.5461 15.9599 36.5553C15.754 36.5645 15.5577 36.645 15.4046 36.783C15.2515 36.921 15.1511 37.1079 15.1206 37.3117C15.09 37.5156 15.1313 37.7237 15.2373 37.9005C15.4667 38.2827 20.9564 47.2213 32 47.2213C43.0435 47.2213 48.5351 38.2827 48.7627 37.9005C48.8688 37.7239 48.9101 37.5159 48.8796 37.3122C48.8491 37.1085 48.7487 36.9218 48.5955 36.784Z" fill="#664500"/>
<path d="M37.7404 7.01688C37.7404 7.44355 37.7938 7.85599 37.8862 8.25422C38.6418 12.9529 43.8667 17.9093 47.6107 19.2711C50.5707 18.1955 54.448 14.8693 56.3182 11.2018C52.5644 6.81212 47.694 3.51853 42.2222 1.66933C40.9667 1.89364 39.8299 2.5521 39.0107 3.52961C38.1914 4.50712 37.7418 5.74147 37.7404 7.01688ZM24.432 51.6942C24.5333 51.264 24.592 50.816 24.592 50.3538C24.592 48.7889 23.9703 47.2881 22.8638 46.1815C21.7573 45.075 20.2565 44.4533 18.6916 44.4533C17.7534 44.4532 16.8289 44.6772 15.9949 45.1068C15.1609 45.5363 14.4416 46.1589 13.8969 46.9227C13.352 46.1591 12.6327 45.5367 11.7987 45.1072C10.9647 44.6777 10.0403 44.4535 9.10222 44.4533C8.05746 44.4557 7.03222 44.7366 6.13223 45.2673C5.23224 45.7979 4.49006 46.559 3.98222 47.472C7.23757 53.3497 12.2539 58.0589 18.3253 60.9369C21.2356 58.5351 23.8916 55.0578 24.432 51.6942ZM60.9796 45.5858C60.7646 44.8528 60.3477 44.1951 59.7766 43.6878C59.2055 43.1805 58.5032 42.8441 57.75 42.7171C56.9967 42.5901 56.223 42.6775 55.5171 42.9695C54.8112 43.2614 54.2017 43.746 53.7582 44.368C53.2063 43.6034 52.4069 43.0532 51.4957 42.8106C50.5844 42.5681 49.6173 42.6481 48.7583 43.0371C47.8993 43.4261 47.2012 44.1002 46.7824 44.9451C46.3636 45.79 46.2499 46.7537 46.4604 47.6729C47.0062 51.0596 50.6347 54.5991 53.4098 55.7813C56.5872 52.9212 59.1608 49.4547 60.9796 45.5858Z" fill="#FFAC33"/>
<path d="M59.7778 5.81156C59.7778 4.36737 59.2041 2.98233 58.1829 1.96113C57.1617 0.939929 55.7766 0.366226 54.3324 0.366226C53.4667 0.366198 52.6134 0.573012 51.8438 0.969445C51.0741 1.36588 50.4103 1.94046 49.9076 2.64534C49.1725 1.6256 48.1074 0.891563 46.8928 0.567771C45.6782 0.243978 44.389 0.350375 43.2439 0.868908C42.0988 1.38744 41.1684 2.28617 40.6105 3.41261C40.0526 4.53904 39.9016 5.8238 40.1831 7.04889C40.9404 11.7476 46.1636 16.704 49.9076 18.0658C53.6516 16.704 58.8747 11.7476 59.6302 7.05067C59.7244 6.65067 59.7778 6.23823 59.7778 5.81156ZM21.7031 50.5031C21.7031 48.9382 21.0815 47.4374 19.9749 46.3309C18.8684 45.2243 17.3676 44.6027 15.8027 44.6027C14.8646 44.6025 13.94 44.8266 13.106 45.2561C12.272 45.6856 11.5527 46.3082 11.008 47.072C10.4634 46.3081 9.74414 45.6854 8.91011 45.2559C8.07609 44.8264 7.15147 44.6024 6.21333 44.6027C5.32486 44.6033 4.44799 44.8045 3.64816 45.1913C2.84833 45.5782 2.14618 46.1407 1.59412 46.8368C1.04206 47.533 0.654339 48.3448 0.459885 49.2117C0.265432 50.0787 0.269269 50.9783 0.47111 51.8436C1.29067 56.9333 6.94933 62.304 11.0062 63.7796C15.0631 62.3058 20.7218 56.9351 21.5413 51.8453C21.6444 51.4116 21.7031 50.9636 21.7031 50.5031ZM63.9076 46.448C63.9064 45.5833 63.631 44.7412 63.1209 44.0429C62.6109 43.3446 61.8925 42.8261 61.0691 42.5619C60.2457 42.2977 59.3598 42.3015 58.5387 42.5727C57.7176 42.8439 57.0036 43.3685 56.4996 44.0711C55.9476 43.3065 55.1483 42.7563 54.237 42.5138C53.3257 42.2712 52.3586 42.3512 51.4996 42.7402C50.6406 43.1292 49.9425 43.8033 49.5237 44.6482C49.105 45.4931 48.9912 46.4568 49.2018 47.376C49.7689 50.9013 53.6889 54.6222 56.4996 55.6427C59.3084 54.6222 63.2302 50.9013 63.7956 47.376C63.8667 47.0773 63.9076 46.768 63.9076 46.448Z" fill="#DD2E44"/>
</g>
</svg>
